<?xml version="1.0" encoding="UTF-8" standalone="no"?>
<svg width="181px" height="143px" viewBox="0 0 181 143" version="1.1" xmlns="http://www.w3.org/2000/svg" xmlns:xlink="http://www.w3.org/1999/xlink" xmlns:sketch="http://www.bohemiancoding.com/sketch/ns">
    <!-- Generator: Sketch 3.5.2 (25235) - http://www.bohemiancoding.com/sketch -->
    <title>DBS</title>
    <desc>Created with Sketch.</desc>
    <defs></defs>
    <g id="Page-1" stroke="none" stroke-width="1" fill="none" fill-rule="evenodd" sketch:type="MSPage">
        <g id="cu7io.us" sketch:type="MSArtboardGroup" transform="translate(-827.000000, -2130.000000)">
            <g id="About-Me" sketch:type="MSLayerGroup" transform="translate(424.000000, 1460.000000)">
                <g id="DB's" transform="translate(391.000000, 670.000000)" sketch:type="MSShapeGroup">
                    <g id="DBS" transform="translate(12.000000, 0.000000)">
                        <g id="mongodb" transform="translate(117.000000, 0.000000)">
                            <path d="M35.0534362,142.317005 L31.2699893,141.024486 C31.2699893,141.024486 31.7319117,121.737713 24.8108459,120.353673 C20.1968021,115.001416 25.5490584,-106.659184 42.1592709,119.61546 C42.1592709,119.61546 36.43834,122.475926 35.4229741,127.367123 C34.3152237,132.165936 35.0534362,142.317005 35.0534362,142.317005 L35.0534362,142.317005 L35.0534362,142.317005 L35.0534362,142.317005 Z" id="Shape" fill="#FFFFFF"></path>
                            <path d="M35.0534362,142.317005 L31.2699893,141.024486 C31.2699893,141.024486 31.7319117,121.737713 24.8108459,120.353673 C20.1968021,115.001416 25.5490584,-106.659184 42.1592709,119.61546 C42.1592709,119.61546 36.43834,122.475926 35.4229741,127.367123 C34.3152237,132.165936 35.0534362,142.317005 35.0534362,142.317005 L35.0534362,142.317005 L35.0534362,142.317005 L35.0534362,142.317005 Z" id="Shape" fill="#A6A385"></path>
                            <path d="M37.0841679,123.676061 C37.0841679,123.676061 70.2130718,101.897497 62.461409,56.5867926 C54.9868998,23.6426576 37.360458,12.8457605 35.422974,8.69277572 C33.3007211,5.7399258 31.2699892,0.572438448 31.2699892,0.572438448 L32.6548931,92.2074874 C32.6548931,92.2998718 29.7935642,120.261288 37.0841679,123.676061" id="Shape" fill="#FFFFFF"></path>
                            <path d="M37.0841679,123.676061 C37.0841679,123.676061 70.2130718,101.897497 62.461409,56.5867926 C54.9868998,23.6426576 37.360458,12.8457605 35.422974,8.69277572 C33.3007211,5.7399258 31.2699892,0.572438448 31.2699892,0.572438448 L32.6548931,92.2074874 C32.6548931,92.2998718 29.7935642,120.261288 37.0841679,123.676061" id="Shape" fill="#499D4A"></path>
                            <path d="M29.332506,124.875332 C29.332506,124.875332 -1.76652951,103.650212 0.0794333896,66.2768026 C1.8321484,28.9025296 23.7954806,10.5387386 28.0399866,7.21635076 C30.8089308,4.26350084 30.9013154,3.15575042 31.0860844,0.202900506 C33.0235682,4.35588532 32.6548938,62.3085868 32.9311838,69.1372682 C33.7617808,95.4374908 31.4547588,119.892614 29.332506,124.875332 L29.332506,124.875332 L29.332506,124.875332 L29.332506,124.875332 Z" id="Shape" fill="#FFFFFF"></path>
                            <path d="M29.332506,124.875332 C29.332506,124.875332 -1.76652951,103.650212 0.0794333896,66.2768026 C1.8321484,28.9025296 23.7954806,10.5387386 28.0399866,7.21635076 C30.8089308,4.26350084 30.9013154,3.15575042 31.0860844,0.202900506 C33.0235682,4.35588532 32.6548938,62.3085868 32.9311838,69.1372682 C33.7617808,95.4374908 31.4547588,119.892614 29.332506,124.875332 L29.332506,124.875332 L29.332506,124.875332 L29.332506,124.875332 Z" id="Shape" fill="#58AA50"></path>
                        </g>
                        <g id="redis" transform="translate(0.000000, 36.000000)">
                            <g id="Group">
                                <path d="M84.5520799,58.3622157 C79.855964,60.8222746 55.5280165,70.8746249 50.3485733,73.5879096 C45.1694743,76.3018855 42.2921964,76.2756299 38.2007563,74.3099324 C34.1093159,72.3442345 8.22000688,61.8348333 3.55654867,59.5948362 C1.22550705,58.4751831 0,57.5303353 0,56.6376527 L0,47.6987372 C0,47.6987372 33.7043657,40.3247795 39.1457547,38.3632271 C44.5867995,36.4013293 46.4747336,36.3305094 51.1051908,38.0350353 C55.7359918,39.7399067 83.4235129,44.760209 88,46.4446979 C88,46.4446979 87.9979372,54.4284018 87.9979372,55.2571732 C87.998625,56.1408735 86.942592,57.1102494 84.5520799,58.3622157" id="Shape" fill="#912626"></path>
                                <path d="M84.5504419,49.4760231 C79.8544777,51.9349662 55.5273135,61.9876838 50.3480371,64.700881 C45.1691044,67.4151153 42.2919197,67.388515 38.2006109,65.4228807 C34.1089587,63.4586279 8.22082717,52.9474924 3.55751914,50.7086036 C-1.10578893,48.4683329 -1.20375759,46.926571 3.3773943,45.1239909 C7.95820242,43.3207199 33.7043654,33.1695477 39.1462662,31.2077132 C44.5871363,29.2465696 46.4746659,29.1750606 51.1049736,30.8802226 C55.7356257,32.5846937 79.9177277,42.2577573 84.4937232,43.9418465 C89.0707503,45.6280088 89.2464059,47.0160434 84.5504419,49.4760231" id="Shape" fill="#C6302B"></path>
                                <path d="M84.5520799,43.8984132 C79.855964,46.3584721 55.5280165,56.4108224 50.3485733,59.1251438 C45.1694743,61.838083 42.2921964,61.8118277 38.2007563,59.8461299 C34.1089721,57.8814684 8.22000688,47.3710308 3.55654867,45.1310334 C1.22550705,44.0113803 0,43.0675691 0,42.1748869 L0,33.2349346 C0,33.2349346 33.7043657,25.8613224 39.1457547,23.8994246 C44.5867995,21.9378724 46.4747336,21.8667066 51.1051908,23.5712326 C55.7359918,25.2761041 83.4235129,30.29537 88,31.9802045 C88,31.9802045 87.9979372,39.9639084 87.9979372,40.7937161 C87.998625,41.677071 86.942592,42.6464469 84.5520799,43.8984132" id="Shape" fill="#912626"></path>
                                <path d="M84.5504419,35.0122203 C79.8544777,37.4718542 55.5273135,47.5238809 50.3480371,50.2381149 C45.1691044,52.9513121 42.2919197,52.9247121 38.2006109,50.9590778 C34.1089587,48.994825 8.22082717,38.484035 3.55751914,36.2448007 C-1.10578893,34.0052211 -1.20375759,32.4631135 3.3773943,30.6598425 C7.95820242,28.8576078 33.7043654,18.7057448 39.1462662,16.7442558 C44.5871363,14.7827667 46.4746659,14.7116032 51.1049736,16.4164197 C55.7356257,18.1208908 79.9177277,27.7932634 84.4937232,29.4780436 C89.0707503,31.1635147 89.2464059,32.5522407 84.5504419,35.0118745 L84.5504419,35.0122203" id="Shape" fill="#C6302B"></path>
                                <path d="M84.5520799,28.8981592 C79.855964,31.3582179 55.5280165,41.4109139 50.3485733,44.1252352 C45.1694743,46.8385198 42.2921964,46.8119191 38.2007563,44.8462209 C34.1089721,42.8815598 8.22000688,32.3707768 3.55654867,30.1314705 C1.22550705,29.0114718 0,28.067315 0,27.1753235 L0,18.235026 C0,18.235026 33.7043657,10.8617592 39.1457547,8.900207 C44.5867995,6.93830935 46.4747336,6.86748896 51.1051908,8.57201495 C55.7359918,10.2768864 83.4235129,15.2961523 88,16.9809868 C88,16.9809868 87.9979372,24.9646908 87.9979372,25.7941531 C87.998625,26.6768171 86.942592,27.6461928 84.5520799,28.8981592" id="Shape" fill="#912626"></path>
                                <path d="M84.5504419,20.0119701 C79.8544777,22.4716041 55.5273135,32.5243217 50.3480371,35.2378646 C45.1691044,37.9510622 42.2919197,37.9244622 38.2006109,35.9595185 C34.1093025,33.9945749 8.22082717,23.4844758 3.55751914,21.2448962 C-1.10578893,19.0053165 -1.20375759,17.4628634 3.3773943,15.6599378 C7.95820242,13.8573577 33.7043654,3.70653105 39.1462662,1.74435112 C44.5871363,-0.217483378 46.4746659,-0.287956038 51.1049736,1.41686052 C55.7356257,3.12167707 79.9177277,12.7940497 84.4937232,14.4788299 C89.0707503,16.1632646 89.2464059,17.552336 84.5504419,20.0119701" id="Shape" fill="#C6302B"></path>
                                <path d="M54.7535233,11.316084 L47.1879107,12.1054985 L45.4940815,16.2009934 L42.7582365,11.6307529 L34.0220193,10.8416812 L40.540841,8.47926483 L38.5850582,4.85268837 L44.6880967,7.25143906 L50.4418643,5.35828386 L48.8868566,9.1082599 L54.7535233,11.316084" id="Shape" fill="#FFFFFF"></path>
                                <path d="M45.0421434,31.1858154 L30.9218954,25.3003411 L51.1554148,22.1793601 L45.0421434,31.1858154" id="Shape" fill="#FFFFFF"></path>
                                <path d="M25.4655543,13.5924634 C31.4382984,13.5924634 36.2800037,15.4787631 36.2800037,17.8051879 C36.2800037,20.1319555 31.4382984,22.0179123 25.4655543,22.0179123 C19.4931511,22.0179123 14.6511046,20.1319555 14.6511046,17.8051879 C14.6511046,15.4787631 19.4931511,13.5924634 25.4655543,13.5924634" id="Shape" fill="#FFFFFF"></path>
                                <path d="M63.6950738,12.4355924 L75.6698955,17.191275 L63.7053062,21.9421587 L63.6950738,12.4355924" id="Shape" fill="#621B1C"></path>
                                <path d="M50.4469807,17.7020121 L63.6950737,12.4355924 L63.7053062,21.9421587 L62.4064537,22.4528958 L50.4469807,17.7020121" id="Shape" fill="#9A2928"></path>
                            </g>
                        </g>
                    </g>
                </g>
            </g>
        </g>
    </g>
</svg>