<?xml version="1.0" encoding="UTF-8" standalone="no"?>
<svg width="162px" height="72px" viewBox="0 0 162 72" version="1.1" xmlns="http://www.w3.org/2000/svg" xmlns:xlink="http://www.w3.org/1999/xlink" xmlns:sketch="http://www.bohemiancoding.com/sketch/ns">
    <!-- Generator: Sketch 3.5.2 (25235) - http://www.bohemiancoding.com/sketch -->
    <title>Geek</title>
    <desc>Created with Sketch.</desc>
    <defs></defs>
    <g id="Page-1" stroke="none" stroke-width="1" fill="none" fill-rule="evenodd" sketch:type="MSPage">
        <g id="cu7io.us" sketch:type="MSArtboardGroup" transform="translate(-448.000000, -1483.000000)">
            <g id="About-Me" sketch:type="MSLayerGroup" transform="translate(424.000000, 1460.000000)">
                <g id="My-Geek" transform="translate(0.000000, 23.000000)" sketch:type="MSShapeGroup">
                    <g id="Geek" transform="translate(23.000000, 0.000000)">
                        <g id="Geek-Front" transform="translate(63.500000, 0.000000)">
                            <g id="Shoes" transform="translate(5.000000, 67.500000)" fill="#9B4500">
                                <path d="M0,0 L4.5,0 L4.5,4.5 L0,4.5 L0,0 Z M4.5,0 L9,0 L9,4.5 L4.5,4.5 L4.5,0 Z M18,0 L22.5,0 L22.5,4.5 L18,4.5 L18,0 Z M22.5,0 L27,0 L27,4.5 L22.5,4.5 L22.5,0 Z" id="Rectangle-path"></path>
                            </g>
                            <g id="Pants" transform="translate(5.000000, 54.000000)" fill="#8DCDFB">
                                <path d="M0,4.5 L4.5,4.5 L4.5,9 L0,9 L0,4.5 Z M4.5,4.5 L9,4.5 L9,9 L4.5,9 L4.5,4.5 Z M9,4.5 L13.5,4.5 L13.5,9 L9,9 L9,4.5 Z M13.5,4.5 L18,4.5 L18,9 L13.5,9 L13.5,4.5 Z M18,4.5 L22.5,4.5 L22.5,9 L18,9 L18,4.5 Z M22.5,4.5 L27,4.5 L27,9 L22.5,9 L22.5,4.5 Z M0,9 L4.5,9 L4.5,13.5 L0,13.5 L0,9 Z M4.5,9 L9,9 L9,13.5 L4.5,13.5 L4.5,9 Z M0,0 L4.5,0 L4.5,4.5 L0,4.5 L0,0 Z M18,9 L22.5,9 L22.5,13.5 L18,13.5 L18,9 Z M22.5,9 L27,9 L27,13.5 L22.5,13.5 L22.5,9 Z" id="Rectangle-path"></path>
                            </g>
                            <g id="Hands" transform="translate(0.500000, 58.500000)" fill="#EDC5AD">
                                <rect id="Rectangle-path" x="0" y="0" width="4.5" height="4.5"></rect>
                                <rect id="Rectangle-path" x="31.5" y="0" width="4.5" height="4.5"></rect>
                            </g>
                            <g id="Face" transform="translate(5.000000, 9.000000)" fill="#EDC5AD">
                                <path d="M9,22.5 L13.5,22.5 L13.5,27 L9,27 L9,22.5 Z M13.5,22.5 L18,22.5 L18,27 L13.5,27 L13.5,22.5 Z M4.5,27 L9,27 L9,31.5 L4.5,31.5 L4.5,27 Z M18,27 L22.5,27 L22.5,31.5 L18,31.5 L18,27 Z M13.5,31.5 L18,31.5 L18,36 L13.5,36 L13.5,31.5 Z M18,31.5 L22.5,31.5 L22.5,36 L18,36 L18,31.5 Z M4.5,31.5 L9,31.5 L9,36 L4.5,36 L4.5,31.5 Z M9,31.5 L13.5,31.5 L13.5,36 L9,36 L9,31.5 Z M4.5,0 L9,0 L9,4.5 L4.5,4.5 L4.5,0 Z M4.5,4.5 L9,4.5 L9,9 L4.5,9 L4.5,4.5 Z M9,4.5 L13.5,4.5 L13.5,9 L9,9 L9,4.5 Z M13.5,4.5 L18,4.5 L18,9 L13.5,9 L13.5,4.5 Z M22.5,9 L27,9 L27,13.5 L22.5,13.5 L22.5,9 Z M0,9 L4.5,9 L4.5,13.5 L0,13.5 L0,9 Z M9,13.5 L13.5,13.5 L13.5,18 L9,18 L9,13.5 Z M13.5,13.5 L18,13.5 L18,18 L13.5,18 L13.5,13.5 Z M4.5,9 L9,9 L9,13.5 L4.5,13.5 L4.5,9 Z M9,9 L13.5,9 L13.5,13.5 L9,13.5 L9,9 Z M13.5,9 L18,9 L18,13.5 L13.5,13.5 L13.5,9 Z M18,9 L22.5,9 L22.5,13.5 L18,13.5 L18,9 Z" id="Rectangle-path"></path>
                            </g>
                            <g id="Glasses" transform="translate(0.500000, 22.500000)">
                                <g id="Rectangle-222" fill="#000000">
                                    <path d="M31.5,0 L36,0 L36,4.5 L31.5,4.5 L31.5,0 Z M22.5,4.5 L27,4.5 L27,9 L22.5,9 L22.5,4.5 Z M22.5,0 L27,0 L27,4.5 L22.5,4.5 L22.5,0 Z M27,0 L31.5,0 L31.5,4.5 L27,4.5 L27,0 Z M27,9 L31.5,9 L31.5,13.5 L27,13.5 L27,9 Z M22.5,9 L27,9 L27,13.5 L22.5,13.5 L22.5,9 Z M18,4.5 L22.5,4.5 L22.5,9 L18,9 L18,4.5 Z M13.5,4.5 L18,4.5 L18,9 L13.5,9 L13.5,4.5 Z M0,4.5 L4.5,4.5 L4.5,9 L0,9 L0,4.5 Z M0,0 L4.5,0 L4.5,4.5 L0,4.5 L0,0 Z M4.5,0 L9,0 L9,4.5 L4.5,4.5 L4.5,0 Z M9,0 L13.5,0 L13.5,4.5 L9,4.5 L9,0 Z M9,4.5 L13.5,4.5 L13.5,9 L9,9 L9,4.5 Z M9,9 L13.5,9 L13.5,13.5 L9,13.5 L9,9 Z M0,9 L4.5,9 L4.5,13.5 L0,13.5 L0,9 Z M4.5,9 L9,9 L9,13.5 L4.5,13.5 L4.5,9 Z M31.5,4.5 L36,4.5 L36,9 L31.5,9 L31.5,4.5 Z M31.5,9 L36,9 L36,13.5 L31.5,13.5 L31.5,9 Z"></path>
                                </g>
                                <g id="Lenses" transform="translate(4.500000, 4.500000)" fill="#FFC700">
                                    <rect id="Rectangle-222" x="22.5" y="0" width="4.5" height="4.5"></rect>
                                    <rect id="Rectangle-222" x="0" y="0" width="4.5" height="4.5"></rect>
                                </g>
                            </g>
                            <g id="Beard" transform="translate(5.000000, 36.000000)" fill="#3C1D04">
                                <path d="M22.5,9 L27,9 L27,13.5 L22.5,13.5 L22.5,9 Z M22.5,4.5 L27,4.5 L27,9 L22.5,9 L22.5,4.5 Z M18,4.5 L22.5,4.5 L22.5,9 L18,9 L18,4.5 Z M9,9 L13.5,9 L13.5,13.5 L9,13.5 L9,9 Z M13.5,9 L18,9 L18,13.5 L13.5,13.5 L13.5,9 Z M4.5,9 L9,9 L9,13.5 L4.5,13.5 L4.5,9 Z M4.5,13.5 L9,13.5 L9,18 L4.5,18 L4.5,13.5 Z M18,13.5 L22.5,13.5 L22.5,18 L18,18 L18,13.5 Z M18,9 L22.5,9 L22.5,13.5 L18,13.5 L18,9 Z M0,9 L4.5,9 L4.5,13.5 L0,13.5 L0,9 Z M0,0 L4.5,0 L4.5,4.5 L0,4.5 L0,0 Z M13.5,13.5 L18,13.5 L18,18 L13.5,18 L13.5,13.5 Z M9,13.5 L13.5,13.5 L13.5,18 L9,18 L9,13.5 Z M4.5,4.5 L9,4.5 L9,9 L4.5,9 L4.5,4.5 Z M22.5,0 L27,0 L27,4.5 L22.5,4.5 L22.5,0 Z M0,4.5 L4.5,4.5 L4.5,9 L0,9 L0,4.5 Z M9,0 L13.5,0 L13.5,4.5 L9,4.5 L9,0 Z M13.5,0 L18,0 L18,4.5 L13.5,4.5 L13.5,0 Z" id="Rectangle-222"></path>
                            </g>
                            <g id="Hair" transform="translate(5.000000, 0.000000)" fill="#3C1D04">
                                <path d="M18,9 L22.5,9 L22.5,13.5 L18,13.5 L18,9 Z M18,4.5 L22.5,4.5 L22.5,9 L18,9 L18,4.5 Z M22.5,9 L27,9 L27,13.5 L22.5,13.5 L22.5,9 Z M22.5,13.5 L27,13.5 L27,18 L22.5,18 L22.5,13.5 Z M4.5,4.5 L9,4.5 L9,9 L4.5,9 L4.5,4.5 Z M13.5,9 L18,9 L18,13.5 L13.5,13.5 L13.5,9 Z M9,9 L13.5,9 L13.5,13.5 L9,13.5 L9,9 Z M18,13.5 L22.5,13.5 L22.5,18 L18,18 L18,13.5 Z M9,4.5 L13.5,4.5 L13.5,9 L9,9 L9,4.5 Z M13.5,4.5 L18,4.5 L18,9 L13.5,9 L13.5,4.5 Z M4.5,0 L9,0 L9,4.5 L4.5,4.5 L4.5,0 Z M9,0 L13.5,0 L13.5,4.5 L9,4.5 L9,0 Z M13.5,0 L18,0 L18,4.5 L13.5,4.5 L13.5,0 Z M18,0 L22.5,0 L22.5,4.5 L18,4.5 L18,0 Z M0,4.5 L4.5,4.5 L4.5,9 L0,9 L0,4.5 Z M22.5,4.5 L27,4.5 L27,9 L22.5,9 L22.5,4.5 Z M27,9 L31.5,9 L31.5,13.5 L27,13.5 L27,9 Z M27,13.5 L31.5,13.5 L31.5,18 L27,18 L27,13.5 Z M0,9 L4.5,9 L4.5,13.5 L0,13.5 L0,9 Z M0,13.5 L4.5,13.5 L4.5,18 L0,18 L0,13.5 Z" id="Rectangle-222"></path>
                            </g>
                            <g id="Shirt" transform="translate(0.250000, 45.000000)">
                                <g id="T-Shirt" transform="translate(9.250000, 9.000000)" fill="#FFFFFF">
                                    <path d="M13.5,0 L18,0 L18,4.5 L13.5,4.5 L13.5,0 Z M9,0 L13.5,0 L13.5,4.5 L9,4.5 L9,0 Z M4.5,0 L9,0 L9,4.5 L4.5,4.5 L4.5,0 Z M0,0 L4.5,0 L4.5,4.5 L0,4.5 L0,0 Z" id="Rectangle-path"></path>
                                </g>
                                <g id="Rectangle-path">
                                    <rect fill="#D8D8D8" x="0.25" y="2.25" width="2.25" height="2.25"></rect>
                                    <rect fill="#D8D8D8" x="0.25" y="6.75" width="2.25" height="2.25"></rect>
                                    <rect fill="#D8D8D8" x="4.75" y="6.75" width="2.25" height="2.25"></rect>
                                    <rect fill="#D8D8D8" x="0.25" y="11.25" width="2.25" height="2.25"></rect>
                                    <rect fill="#D8D8D8" x="4.75" y="11.25" width="2.25" height="2.25"></rect>
                                    <rect fill="#D8D8D8" x="9.25" y="11.25" width="2.25" height="2.25"></rect>
                                    <rect fill="#D8D8D8" x="27.25" y="11.25" width="2.25" height="2.25"></rect>
                                    <rect fill="#D8D8D8" x="27.25" y="6.75" width="2.25" height="2.25"></rect>
                                    <rect fill="#D8D8D8" x="31.75" y="2.25" width="2.25" height="2.25"></rect>
                                    <rect fill="#D8D8D8" x="31.75" y="6.75" width="2.25" height="2.25"></rect>
                                    <rect fill="#D8D8D8" x="31.75" y="11.25" width="2.25" height="2.25"></rect>
                                    <rect fill="#69C300" x="29.5" y="13.5" width="2.25" height="2.25"></rect>
                                    <rect fill="#288BFF" x="27.25" y="13.5" width="2.25" height="2.25"></rect>
                                    <rect fill="#69C300" x="25" y="13.5" width="2.25" height="2.25"></rect>
                                    <rect fill="#288BFF" x="9.25" y="13.5" width="2.25" height="2.25"></rect>
                                    <rect fill="#69C300" x="7" y="13.5" width="2.25" height="2.25"></rect>
                                    <rect fill="#288BFF" x="4.75" y="13.5" width="2.25" height="2.25"></rect>
                                    <rect fill="#69C300" x="34" y="9" width="2.25" height="2.25"></rect>
                                    <rect fill="#288BFF" x="31.75" y="9" width="2.25" height="2.25"></rect>
                                    <rect fill="#565656" x="34" y="11.25" width="2.25" height="2.25"></rect>
                                    <rect fill="#69C300" x="34" y="4.5" width="2.25" height="2.25"></rect>
                                    <rect fill="#288BFF" x="31.75" y="4.5" width="2.25" height="2.25"></rect>
                                    <rect fill="#565656" x="34" y="6.75" width="2.25" height="2.25"></rect>
                                    <rect fill="#69C300" x="34" y="0" width="2.25" height="2.25"></rect>
                                    <rect fill="#288BFF" x="31.75" y="0" width="2.25" height="2.25"></rect>
                                    <rect fill="#565656" x="34" y="2.25" width="2.25" height="2.25"></rect>
                                    <rect fill="#69C300" x="29.5" y="4.5" width="2.25" height="2.25"></rect>
                                    <rect fill="#288BFF" x="27.25" y="4.5" width="2.25" height="2.25"></rect>
                                    <rect fill="#565656" x="29.5" y="6.75" width="2.25" height="2.25"></rect>
                                    <rect fill="#69C300" x="29.5" y="9" width="2.25" height="2.25"></rect>
                                    <rect fill="#288BFF" x="27.25" y="9" width="2.25" height="2.25"></rect>
                                    <rect fill="#565656" x="29.5" y="11.25" width="2.25" height="2.25"></rect>
                                    <rect fill="#69C300" x="25" y="9" width="2.25" height="2.25"></rect>
                                    <rect fill="#565656" x="25" y="11.25" width="2.25" height="2.25"></rect>
                                    <rect fill="#288BFF" x="9.25" y="9" width="2.25" height="2.25"></rect>
                                    <rect fill="#69C300" x="7" y="9" width="2.25" height="2.25"></rect>
                                    <rect fill="#288BFF" x="4.75" y="9" width="2.25" height="2.25"></rect>
                                    <rect fill="#565656" x="7" y="11.25" width="2.25" height="2.25"></rect>
                                    <rect fill="#69C300" x="2.5" y="9" width="2.25" height="2.25"></rect>
                                    <rect fill="#288BFF" x="0.25" y="9" width="2.25" height="2.25"></rect>
                                    <rect fill="#565656" x="2.5" y="11.25" width="2.25" height="2.25"></rect>
                                    <rect fill="#69C300" x="7" y="4.5" width="2.25" height="2.25"></rect>
                                    <rect fill="#288BFF" x="4.75" y="4.5" width="2.25" height="2.25"></rect>
                                    <rect fill="#565656" x="7" y="6.75" width="2.25" height="2.25"></rect>
                                    <rect fill="#69C300" x="2.5" y="4.5" width="2.25" height="2.25"></rect>
                                    <rect fill="#288BFF" x="0.25" y="4.5" width="2.25" height="2.25"></rect>
                                    <rect fill="#565656" x="2.5" y="6.75" width="2.25" height="2.25"></rect>
                                    <rect fill="#69C300" x="2.5" y="0" width="2.25" height="2.25"></rect>
                                    <rect fill="#288BFF" x="0.25" y="0" width="2.25" height="2.25"></rect>
                                    <rect fill="#565656" x="2.5" y="2.25" width="2.25" height="2.25"></rect>
                                </g>
                            </g>
                        </g>
                        <g id="Geek-Left" transform="translate(20.000000, 36.500000) scale(-1, 1) translate(-20.000000, -36.500000) translate(0.500000, 0.000000)">
                            <g id="Shoes" transform="translate(11.500000, 67.500000)" fill="#9B4500">
                                <path d="M0,0 L4.5,0 L4.5,4.5 L0,4.5 L0,0 Z M4.5,0 L9,0 L9,4.5 L4.5,4.5 L4.5,0 Z M9,0 L13.5,0 L13.5,4.5 L9,4.5 L9,0 Z" id="Rectangle-path"></path>
                            </g>
                            <g id="Pants" transform="translate(7.000000, 58.500000)" fill="#8DCDFB">
                                <path d="M4.5,4.5 L9,4.5 L9,9 L4.5,9 L4.5,4.5 Z M9,4.5 L13.5,4.5 L13.5,9 L9,9 L9,4.5 Z M0,0 L4.5,0 L4.5,4.5 L0,4.5 L0,0 Z M4.5,0 L9,0 L9,4.5 L4.5,4.5 L4.5,0 Z M9,0 L13.5,0 L13.5,4.5 L9,4.5 L9,0 Z" id="Rectangle-path"></path>
                            </g>
                            <g id="Hands" transform="translate(11.500000, 58.500000)" fill="#EDC5AD">
                                <rect id="Rectangle-path" x="0" y="0" width="4.5" height="4.5"></rect>
                            </g>
                            <g id="Hair" fill="#3C1D04">
                                <path d="M16,4.5 L20.5,4.5 L20.5,9 L16,9 L16,4.5 Z M29.5,9 L34,9 L34,13.5 L29.5,13.5 L29.5,9 Z M25,9 L29.5,9 L29.5,13.5 L25,13.5 L25,9 Z M20.5,9 L25,9 L25,13.5 L20.5,13.5 L20.5,9 Z M16,13.5 L20.5,13.5 L20.5,18 L16,18 L16,13.5 Z M11.5,13.5 L16,13.5 L16,18 L11.5,18 L11.5,13.5 Z M16,9 L20.5,9 L20.5,13.5 L16,13.5 L16,9 Z M11.5,9 L16,9 L16,13.5 L11.5,13.5 L11.5,9 Z M7,9 L11.5,9 L11.5,13.5 L7,13.5 L7,9 Z M7,13.5 L11.5,13.5 L11.5,18 L7,18 L7,13.5 Z M20.5,4.5 L25,4.5 L25,9 L20.5,9 L20.5,4.5 Z M11.5,4.5 L16,4.5 L16,9 L11.5,9 L11.5,4.5 Z M25,4.5 L29.5,4.5 L29.5,9 L25,9 L25,4.5 Z M0.25,13.5 L2.5,13.5 L2.5,15.75 L0.25,15.75 L0.25,13.5 Z M0.25,11.25 L2.5,11.25 L2.5,13.5 L0.25,13.5 L0.25,11.25 Z M0.25,9 L2.5,9 L2.5,11.25 L0.25,11.25 L0.25,9 Z M0.25,15.75 L2.5,15.75 L2.5,18 L0.25,18 L0.25,15.75 Z M18.25,47.25 L20.5,47.25 L20.5,49.5 L18.25,49.5 L18.25,47.25 Z M2.5,13.5 L7,13.5 L7,18 L2.5,18 L2.5,13.5 Z M2.5,9 L7,9 L7,13.5 L2.5,13.5 L2.5,9 Z M2.5,4.5 L7,4.5 L7,9 L2.5,9 L2.5,4.5 Z M7,4.5 L11.5,4.5 L11.5,9 L7,9 L7,4.5 Z M16,0 L20.5,0 L20.5,4.5 L16,4.5 L16,0 Z M20.5,0 L25,0 L25,4.5 L20.5,4.5 L20.5,0 Z M25,0 L29.5,0 L29.5,4.5 L25,4.5 L25,0 Z M29.5,4.5 L34,4.5 L34,9 L29.5,9 L29.5,4.5 Z M11.5,0 L16,0 L16,4.5 L11.5,4.5 L11.5,0 Z M7,0 L11.5,0 L11.5,4.5 L7,4.5 L7,0 Z" id="Rectangle-222"></path>
                            </g>
                            <g id="Face" transform="translate(2.500000, 13.500000)" fill="#EDC5AD">
                                <path d="M13.5,4.5 L18,4.5 L18,9 L13.5,9 L13.5,4.5 Z M9,4.5 L13.5,4.5 L13.5,9 L9,9 L9,4.5 Z M4.5,4.5 L9,4.5 L9,9 L4.5,9 L4.5,4.5 Z M0,4.5 L4.5,4.5 L4.5,9 L0,9 L0,4.5 Z M0,13.5 L4.5,13.5 L4.5,18 L0,18 L0,13.5 Z M9,18 L13.5,18 L13.5,22.5 L9,22.5 L9,18 Z M9,22.5 L13.5,22.5 L13.5,27 L9,27 L9,22.5 Z M9,13.5 L13.5,13.5 L13.5,18 L9,18 L9,13.5 Z M13.5,13.5 L18,13.5 L18,18 L13.5,18 L13.5,13.5 Z M4.5,13.5 L9,13.5 L9,18 L4.5,18 L4.5,13.5 Z M4.5,18 L9,18 L9,22.5 L4.5,22.5 L4.5,18 Z M18,0 L22.5,0 L22.5,4.5 L18,4.5 L18,0 Z M22.5,0 L27,0 L27,4.5 L22.5,4.5 L22.5,0 Z M27,0 L31.5,0 L31.5,4.5 L27,4.5 L27,0 Z M18,4.5 L22.5,4.5 L22.5,9 L18,9 L18,4.5 Z M22.5,4.5 L27,4.5 L27,9 L22.5,9 L22.5,4.5 Z M27,4.5 L31.5,4.5 L31.5,9 L27,9 L27,4.5 Z M18,9 L22.5,9 L22.5,13.5 L18,13.5 L18,9 Z M22.5,9 L27,9 L27,13.5 L22.5,13.5 L22.5,9 Z M27,9 L31.5,9 L31.5,13.5 L27,13.5 L27,9 Z M18,18 L22.5,18 L22.5,22.5 L18,22.5 L18,18 Z M22.5,18 L27,18 L27,22.5 L22.5,22.5 L22.5,18 Z M27,18 L31.5,18 L31.5,22.5 L27,22.5 L27,18 Z M27,22.5 L31.5,22.5 L31.5,27 L27,27 L27,22.5 Z M0,9 L4.5,9 L4.5,13.5 L0,13.5 L0,9 Z M4.5,9 L9,9 L9,13.5 L4.5,13.5 L4.5,9 Z M9,9 L13.5,9 L13.5,13.5 L9,13.5 L9,9 Z M13.5,9 L18,9 L18,13.5 L13.5,13.5 L13.5,9 Z" id="Rectangle-path"></path>
                            </g>
                            <g id="Glasses" transform="translate(20.500000, 22.500000)" fill="#000000">
                                <path d="M13.5,0 L18,0 L18,4.5 L13.5,4.5 L13.5,0 Z M13.5,4.5 L18,4.5 L18,9 L13.5,9 L13.5,4.5 Z M13.5,9 L18,9 L18,13.5 L13.5,13.5 L13.5,9 Z M0,4.5 L4.5,4.5 L4.5,9 L0,9 L0,4.5 Z M4.5,4.5 L9,4.5 L9,9 L4.5,9 L4.5,4.5 Z M9,4.5 L13.5,4.5 L13.5,9 L9,9 L9,4.5 Z" id="Rectangle-path"></path>
                            </g>
                            <g id="Beard" transform="translate(16.000000, 31.500000)" fill="#3C1D04">
                                <path d="M0,0 L4.5,0 L4.5,4.5 L0,4.5 L0,0 Z M0,4.5 L4.5,4.5 L4.5,9 L0,9 L0,4.5 Z M4.5,4.5 L9,4.5 L9,9 L4.5,9 L4.5,4.5 Z M9,4.5 L13.5,4.5 L13.5,9 L9,9 L9,4.5 Z M4.5,9 L9,9 L9,13.5 L4.5,13.5 L4.5,9 Z M9,9 L13.5,9 L13.5,13.5 L9,13.5 L9,9 Z M9,13.5 L13.5,13.5 L13.5,18 L9,18 L9,13.5 Z M9,18 L13.5,18 L13.5,22.5 L9,22.5 L9,18 Z M13.5,9 L18,9 L18,13.5 L13.5,13.5 L13.5,9 Z M18,4.5 L22.5,4.5 L22.5,9 L18,9 L18,4.5 Z M18,9 L22.5,9 L22.5,13.5 L18,13.5 L18,9 Z M13.5,13.5 L18,13.5 L18,18 L13.5,18 L13.5,13.5 Z M18,13.5 L22.5,13.5 L22.5,18 L18,18 L18,13.5 Z M13.5,18 L18,18 L18,22.5 L13.5,22.5 L13.5,18 Z" id="Rectangle-222"></path>
                            </g>
                            <g id="T-Shirt" transform="translate(2.500000, 36.000000)">
                                <rect id="Rectangle-path" fill="#D8D8D8" x="4.5" y="6.75" width="2.25" height="2.25"></rect>
                                <rect id="Rectangle-path" fill="#D8D8D8" x="4.5" y="2.25" width="2.25" height="2.25"></rect>
                                <rect id="Rectangle-path" fill="#D8D8D8" x="9" y="2.25" width="2.25" height="2.25"></rect>
                                <rect id="Rectangle-path" fill="#288BFF" x="9" y="0" width="2.25" height="2.25"></rect>
                                <rect id="Rectangle-path" fill="#69C300" x="6.75" y="0" width="2.25" height="2.25"></rect>
                                <rect id="Rectangle-path" fill="#288BFF" x="4.5" y="0" width="2.25" height="2.25"></rect>
                                <rect id="Rectangle-path" fill="#565656" x="6.75" y="2.25" width="2.25" height="2.25"></rect>
                                <rect id="Rectangle-path" fill="#D8D8D8" x="9" y="6.75" width="2.25" height="2.25"></rect>
                                <rect id="Rectangle-path" fill="#D8D8D8" x="13.5" y="6.75" width="2.25" height="2.25"></rect>
                                <rect id="Rectangle-path" fill="#D8D8D8" x="4.5" y="11.25" width="2.25" height="2.25"></rect>
                                <rect id="Rectangle-path" fill="#D8D8D8" x="9" y="11.25" width="2.25" height="2.25"></rect>
                                <rect id="Rectangle-path" fill="#D8D8D8" x="13.5" y="11.25" width="2.25" height="2.25"></rect>
                                <rect id="Rectangle-path" fill="#D8D8D8" x="18" y="11.25" width="2.25" height="2.25"></rect>
                                <rect id="Rectangle-path" fill="#D8D8D8" x="4.5" y="15.75" width="2.25" height="2.25"></rect>
                                <rect id="Rectangle-path" fill="#D8D8D8" x="9" y="15.75" width="2.25" height="2.25"></rect>
                                <rect id="Rectangle-path" fill="#D8D8D8" x="13.5" y="15.75" width="2.25" height="2.25"></rect>
                                <rect id="Rectangle-path" fill="#D8D8D8" x="18" y="15.75" width="2.25" height="2.25"></rect>
                                <rect id="Rectangle-path" fill="#D8D8D8" x="4.5" y="20.25" width="2.25" height="2.25"></rect>
                                <rect id="Rectangle-path" fill="#D8D8D8" x="9" y="20.25" width="2.25" height="2.25"></rect>
                                <rect id="Rectangle-path" fill="#D8D8D8" x="13.5" y="20.25" width="2.25" height="2.25"></rect>
                                <rect id="Rectangle-path" fill="#D8D8D8" x="18" y="20.25" width="2.25" height="2.25"></rect>
                                <rect id="Rectangle-path" fill="#69C300" x="15.75" y="22.5" width="2.25" height="2.25"></rect>
                                <rect id="Rectangle-path" fill="#69C300" x="20.25" y="18" width="2.25" height="2.25"></rect>
                                <rect id="Rectangle-path" fill="#288BFF" x="18" y="18" width="2.25" height="2.25"></rect>
                                <rect id="Rectangle-path" fill="#565656" x="20.25" y="20.25" width="2.25" height="2.25"></rect>
                                <rect id="Rectangle-path" fill="#69C300" x="15.75" y="18" width="2.25" height="2.25"></rect>
                                <rect id="Rectangle-path" fill="#288BFF" x="13.5" y="18" width="2.25" height="2.25"></rect>
                                <rect id="Rectangle-path" fill="#565656" x="15.75" y="20.25" width="2.25" height="2.25"></rect>
                                <rect id="Rectangle-path" fill="#69C300" x="11.25" y="18" width="2.25" height="2.25"></rect>
                                <rect id="Rectangle-path" fill="#288BFF" x="9" y="18" width="2.25" height="2.25"></rect>
                                <rect id="Rectangle-path" fill="#565656" x="11.25" y="20.25" width="2.25" height="2.25"></rect>
                                <rect id="Rectangle-path" fill="#69C300" x="6.75" y="18" width="2.25" height="2.25"></rect>
                                <rect id="Rectangle-path" fill="#288BFF" x="4.5" y="18" width="2.25" height="2.25"></rect>
                                <rect id="Rectangle-path" fill="#565656" x="6.75" y="20.25" width="2.25" height="2.25"></rect>
                                <rect id="Rectangle-path" fill="#69C300" x="20.25" y="13.5" width="2.25" height="2.25"></rect>
                                <rect id="Rectangle-path" fill="#288BFF" x="18" y="13.5" width="2.25" height="2.25"></rect>
                                <rect id="Rectangle-path" fill="#565656" x="20.25" y="15.75" width="2.25" height="2.25"></rect>
                                <rect id="Rectangle-path" fill="#69C300" x="15.75" y="13.5" width="2.25" height="2.25"></rect>
                                <rect id="Rectangle-path" fill="#288BFF" x="13.5" y="13.5" width="2.25" height="2.25"></rect>
                                <rect id="Rectangle-path" fill="#565656" x="15.75" y="15.75" width="2.25" height="2.25"></rect>
                                <rect id="Rectangle-path" fill="#69C300" x="11.25" y="13.5" width="2.25" height="2.25"></rect>
                                <rect id="Rectangle-path" fill="#288BFF" x="9" y="13.5" width="2.25" height="2.25"></rect>
                                <rect id="Rectangle-path" fill="#565656" x="11.25" y="15.75" width="2.25" height="2.25"></rect>
                                <rect id="Rectangle-path" fill="#69C300" x="6.75" y="13.5" width="2.25" height="2.25"></rect>
                                <rect id="Rectangle-path" fill="#288BFF" x="4.5" y="13.5" width="2.25" height="2.25"></rect>
                                <rect id="Rectangle-path" fill="#565656" x="6.75" y="15.75" width="2.25" height="2.25"></rect>
                                <rect id="Rectangle-path" fill="#69C300" x="20.25" y="9" width="2.25" height="2.25"></rect>
                                <rect id="Rectangle-path" fill="#288BFF" x="18" y="9" width="2.25" height="2.25"></rect>
                                <rect id="Rectangle-path" fill="#565656" x="20.25" y="11.25" width="2.25" height="2.25"></rect>
                                <rect id="Rectangle-path" fill="#69C300" x="15.75" y="9" width="2.25" height="2.25"></rect>
                                <rect id="Rectangle-path" fill="#288BFF" x="13.5" y="9" width="2.25" height="2.25"></rect>
                                <rect id="Rectangle-path" fill="#565656" x="15.75" y="11.25" width="2.25" height="2.25"></rect>
                                <rect id="Rectangle-path" fill="#69C300" x="11.25" y="9" width="2.25" height="2.25"></rect>
                                <rect id="Rectangle-path" fill="#288BFF" x="9" y="9" width="2.25" height="2.25"></rect>
                                <rect id="Rectangle-path" fill="#565656" x="11.25" y="11.25" width="2.25" height="2.25"></rect>
                                <rect id="Rectangle-path" fill="#69C300" x="6.75" y="9" width="2.25" height="2.25"></rect>
                                <rect id="Rectangle-path" fill="#288BFF" x="4.5" y="9" width="2.25" height="2.25"></rect>
                                <rect id="Rectangle-path" fill="#565656" x="6.75" y="11.25" width="2.25" height="2.25"></rect>
                                <rect id="Rectangle-path" fill="#69C300" x="15.75" y="4.5" width="2.25" height="2.25"></rect>
                                <rect id="Rectangle-path" fill="#288BFF" x="13.5" y="4.5" width="2.25" height="2.25"></rect>
                                <rect id="Rectangle-path" fill="#565656" x="15.75" y="6.75" width="2.25" height="2.25"></rect>
                                <rect id="Rectangle-path" fill="#69C300" x="11.25" y="4.5" width="2.25" height="2.25"></rect>
                                <rect id="Rectangle-path" fill="#288BFF" x="9" y="4.5" width="2.25" height="2.25"></rect>
                                <rect id="Rectangle-path" fill="#565656" x="11.25" y="6.75" width="2.25" height="2.25"></rect>
                                <rect id="Rectangle-path" fill="#69C300" x="6.75" y="4.5" width="2.25" height="2.25"></rect>
                                <rect id="Rectangle-path" fill="#288BFF" x="4.5" y="4.5" width="2.25" height="2.25"></rect>
                                <rect id="Rectangle-path" fill="#565656" x="6.75" y="6.75" width="2.25" height="2.25"></rect>
                                <rect id="Rectangle-path" fill="#69C300" x="2.25" y="0" width="2.25" height="2.25"></rect>
                                <rect id="Rectangle-path" fill="#565656" x="2.25" y="2.25" width="2.25" height="2.25"></rect>
                                <rect id="Rectangle-path" fill="#69C300" x="2.25" y="0" width="2.25" height="2.25"></rect>
                                <rect id="Rectangle-path" fill="#565656" x="2.25" y="2.25" width="2.25" height="2.25"></rect>
                                <rect id="Rectangle-path" fill="#69C300" x="20.25" y="22.5" width="2.25" height="2.25"></rect>
                                <rect id="Rectangle-path" fill="#288BFF" x="18" y="22.5" width="2.25" height="2.25"></rect>
                                <rect id="Rectangle-path" fill="#69C300" x="2.25" y="0" width="2.25" height="2.25"></rect>
                                <rect id="Rectangle-path" fill="#565656" x="2.25" y="2.25" width="2.25" height="2.25"></rect>
                                <rect id="Rectangle-path" fill="#69C300" x="2.25" y="0" width="2.25" height="2.25"></rect>
                                <rect id="Rectangle-path" fill="#565656" x="2.25" y="2.25" width="2.25" height="2.25"></rect>
                                <rect id="Rectangle-path" fill="#69C300" x="20.25" y="22.5" width="2.25" height="2.25"></rect>
                                <rect id="Rectangle-path" fill="#288BFF" x="18" y="22.5" width="2.25" height="2.25"></rect>
                            </g>
                        </g>
                        <g id="Geek-Right" transform="translate(124.500000, 0.000000)">
                            <g id="Shoes" transform="translate(11.500000, 67.500000)" fill="#9B4500">
                                <path d="M0,0 L4.5,0 L4.5,4.5 L0,4.5 L0,0 Z M4.5,0 L9,0 L9,4.5 L4.5,4.5 L4.5,0 Z M9,0 L13.5,0 L13.5,4.5 L9,4.5 L9,0 Z" id="Rectangle-path"></path>
                            </g>
                            <g id="Pants" transform="translate(7.000000, 58.500000)" fill="#8DCDFB">
                                <path d="M4.5,4.5 L9,4.5 L9,9 L4.5,9 L4.5,4.5 Z M9,4.5 L13.5,4.5 L13.5,9 L9,9 L9,4.5 Z M0,0 L4.5,0 L4.5,4.5 L0,4.5 L0,0 Z M4.5,0 L9,0 L9,4.5 L4.5,4.5 L4.5,0 Z M9,0 L13.5,0 L13.5,4.5 L9,4.5 L9,0 Z" id="Rectangle-path"></path>
                            </g>
                            <g id="Hands" transform="translate(11.500000, 58.500000)" fill="#EDC5AD">
                                <rect id="Rectangle-path" x="0" y="0" width="4.5" height="4.5"></rect>
                            </g>
                            <g id="Face" transform="translate(2.500000, 13.500000)" fill="#EDC5AD">
                                <path d="M13.5,4.5 L18,4.5 L18,9 L13.5,9 L13.5,4.5 Z M9,4.5 L13.5,4.5 L13.5,9 L9,9 L9,4.5 Z M4.5,4.5 L9,4.5 L9,9 L4.5,9 L4.5,4.5 Z M0,4.5 L4.5,4.5 L4.5,9 L0,9 L0,4.5 Z M0,13.5 L4.5,13.5 L4.5,18 L0,18 L0,13.5 Z M9,18 L13.5,18 L13.5,22.5 L9,22.5 L9,18 Z M9,22.5 L13.5,22.5 L13.5,27 L9,27 L9,22.5 Z M9,13.5 L13.5,13.5 L13.5,18 L9,18 L9,13.5 Z M13.5,13.5 L18,13.5 L18,18 L13.5,18 L13.5,13.5 Z M4.5,13.5 L9,13.5 L9,18 L4.5,18 L4.5,13.5 Z M4.5,18 L9,18 L9,22.5 L4.5,22.5 L4.5,18 Z M18,0 L22.5,0 L22.5,4.5 L18,4.5 L18,0 Z M22.5,0 L27,0 L27,4.5 L22.5,4.5 L22.5,0 Z M27,0 L31.5,0 L31.5,4.5 L27,4.5 L27,0 Z M18,4.5 L22.5,4.5 L22.5,9 L18,9 L18,4.5 Z M22.5,4.5 L27,4.5 L27,9 L22.5,9 L22.5,4.5 Z M27,4.5 L31.5,4.5 L31.5,9 L27,9 L27,4.5 Z M18,9 L22.5,9 L22.5,13.5 L18,13.5 L18,9 Z M22.5,9 L27,9 L27,13.5 L22.5,13.5 L22.5,9 Z M27,9 L31.5,9 L31.5,13.5 L27,13.5 L27,9 Z M18,18 L22.5,18 L22.5,22.5 L18,22.5 L18,18 Z M22.5,18 L27,18 L27,22.5 L22.5,22.5 L22.5,18 Z M27,18 L31.5,18 L31.5,22.5 L27,22.5 L27,18 Z M27,22.5 L31.5,22.5 L31.5,27 L27,27 L27,22.5 Z M0,9 L4.5,9 L4.5,13.5 L0,13.5 L0,9 Z M4.5,9 L9,9 L9,13.5 L4.5,13.5 L4.5,9 Z M9,9 L13.5,9 L13.5,13.5 L9,13.5 L9,9 Z M13.5,9 L18,9 L18,13.5 L13.5,13.5 L13.5,9 Z" id="Rectangle-path"></path>
                            </g>
                            <g id="Hair" fill="#3C1D04">
                                <path d="M16,4.5 L20.5,4.5 L20.5,9 L16,9 L16,4.5 Z M29.5,9 L34,9 L34,13.5 L29.5,13.5 L29.5,9 Z M25,9 L29.5,9 L29.5,13.5 L25,13.5 L25,9 Z M20.5,9 L25,9 L25,13.5 L20.5,13.5 L20.5,9 Z M16,13.5 L20.5,13.5 L20.5,18 L16,18 L16,13.5 Z M11.5,13.5 L16,13.5 L16,18 L11.5,18 L11.5,13.5 Z M16,9 L20.5,9 L20.5,13.5 L16,13.5 L16,9 Z M11.5,9 L16,9 L16,13.5 L11.5,13.5 L11.5,9 Z M7,9 L11.5,9 L11.5,13.5 L7,13.5 L7,9 Z M7,13.5 L11.5,13.5 L11.5,18 L7,18 L7,13.5 Z M20.5,4.5 L25,4.5 L25,9 L20.5,9 L20.5,4.5 Z M11.5,4.5 L16,4.5 L16,9 L11.5,9 L11.5,4.5 Z M25,4.5 L29.5,4.5 L29.5,9 L25,9 L25,4.5 Z M0.25,13.5 L2.5,13.5 L2.5,15.75 L0.25,15.75 L0.25,13.5 Z M0.25,11.25 L2.5,11.25 L2.5,13.5 L0.25,13.5 L0.25,11.25 Z M0.25,9 L2.5,9 L2.5,11.25 L0.25,11.25 L0.25,9 Z M0.25,15.75 L2.5,15.75 L2.5,18 L0.25,18 L0.25,15.75 Z M18.25,47.25 L20.5,47.25 L20.5,49.5 L18.25,49.5 L18.25,47.25 Z M2.5,13.5 L7,13.5 L7,18 L2.5,18 L2.5,13.5 Z M2.5,9 L7,9 L7,13.5 L2.5,13.5 L2.5,9 Z M2.5,4.5 L7,4.5 L7,9 L2.5,9 L2.5,4.5 Z M20.5,13.5 L25,13.5 L25,18 L20.5,18 L20.5,13.5 Z M7,4.5 L11.5,4.5 L11.5,9 L7,9 L7,4.5 Z M16,0 L20.5,0 L20.5,4.5 L16,4.5 L16,0 Z M20.5,0 L25,0 L25,4.5 L20.5,4.5 L20.5,0 Z M25,0 L29.5,0 L29.5,4.5 L25,4.5 L25,0 Z M29.5,4.5 L34,4.5 L34,9 L29.5,9 L29.5,4.5 Z M11.5,0 L16,0 L16,4.5 L11.5,4.5 L11.5,0 Z M7,0 L11.5,0 L11.5,4.5 L7,4.5 L7,0 Z M25,13.5 L29.5,13.5 L29.5,18 L25,18 L25,13.5 Z M29.5,13.5 L34,13.5 L34,18 L29.5,18 L29.5,13.5 Z M25,18 L29.5,18 L29.5,22.5 L25,22.5 L25,18 Z M29.5,18 L34,18 L34,22.5 L29.5,22.5 L29.5,18 Z M20.5,18 L25,18 L25,22.5 L20.5,22.5 L20.5,18 Z" id="Rectangle-222"></path>
                            </g>
                            <g id="Glasses" transform="translate(20.500000, 22.500000)" fill="#000000">
                                <path d="M13.5,0 L18,0 L18,4.5 L13.5,4.5 L13.5,0 Z M13.5,4.5 L18,4.5 L18,9 L13.5,9 L13.5,4.5 Z M13.5,9 L18,9 L18,13.5 L13.5,13.5 L13.5,9 Z M0,4.5 L4.5,4.5 L4.5,9 L0,9 L0,4.5 Z M4.5,4.5 L9,4.5 L9,9 L4.5,9 L4.5,4.5 Z M9,4.5 L13.5,4.5 L13.5,9 L9,9 L9,4.5 Z" id="Rectangle-path"></path>
                            </g>
                            <g id="Beard" transform="translate(16.000000, 31.500000)" fill="#3C1D04">
                                <path d="M0,0 L4.5,0 L4.5,4.5 L0,4.5 L0,0 Z M0,4.5 L4.5,4.5 L4.5,9 L0,9 L0,4.5 Z M4.5,4.5 L9,4.5 L9,9 L4.5,9 L4.5,4.5 Z M9,4.5 L13.5,4.5 L13.5,9 L9,9 L9,4.5 Z M4.5,9 L9,9 L9,13.5 L4.5,13.5 L4.5,9 Z M9,9 L13.5,9 L13.5,13.5 L9,13.5 L9,9 Z M9,13.5 L13.5,13.5 L13.5,18 L9,18 L9,13.5 Z M9,18 L13.5,18 L13.5,22.5 L9,22.5 L9,18 Z M13.5,9 L18,9 L18,13.5 L13.5,13.5 L13.5,9 Z M18,4.5 L22.5,4.5 L22.5,9 L18,9 L18,4.5 Z M18,9 L22.5,9 L22.5,13.5 L18,13.5 L18,9 Z M13.5,13.5 L18,13.5 L18,18 L13.5,18 L13.5,13.5 Z M18,13.5 L22.5,13.5 L22.5,18 L18,18 L18,13.5 Z M13.5,18 L18,18 L18,22.5 L13.5,22.5 L13.5,18 Z" id="Rectangle-222"></path>
                            </g>
                            <g id="T-Shirt" transform="translate(4.500000, 36.000000)">
                                <rect id="Rectangle-path" fill="#D8D8D8" x="2.5" y="6.75" width="2.25" height="2.25"></rect>
                                <rect id="Rectangle-path" fill="#D8D8D8" x="2.5" y="2.25" width="2.25" height="2.25"></rect>
                                <rect id="Rectangle-path" fill="#D8D8D8" x="7" y="2.25" width="2.25" height="2.25"></rect>
                                <rect id="Rectangle-path" fill="#288BFF" x="7" y="0" width="2.25" height="2.25"></rect>
                                <rect id="Rectangle-path" fill="#69C300" x="4.75" y="0" width="2.25" height="2.25"></rect>
                                <rect id="Rectangle-path" fill="#288BFF" x="2.5" y="0" width="2.25" height="2.25"></rect>
                                <rect id="Rectangle-path" fill="#565656" x="4.75" y="2.25" width="2.25" height="2.25"></rect>
                                <rect id="Rectangle-path" fill="#D8D8D8" x="7" y="6.75" width="2.25" height="2.25"></rect>
                                <rect id="Rectangle-path" fill="#D8D8D8" x="11.5" y="6.75" width="2.25" height="2.25"></rect>
                                <rect id="Rectangle-path" fill="#D8D8D8" x="2.5" y="11.25" width="2.25" height="2.25"></rect>
                                <rect id="Rectangle-path" fill="#D8D8D8" x="7" y="11.25" width="2.25" height="2.25"></rect>
                                <rect id="Rectangle-path" fill="#D8D8D8" x="11.5" y="11.25" width="2.25" height="2.25"></rect>
                                <rect id="Rectangle-path" fill="#D8D8D8" x="16" y="11.25" width="2.25" height="2.25"></rect>
                                <rect id="Rectangle-path" fill="#D8D8D8" x="2.5" y="15.75" width="2.25" height="2.25"></rect>
                                <rect id="Rectangle-path" fill="#D8D8D8" x="7" y="15.75" width="2.25" height="2.25"></rect>
                                <rect id="Rectangle-path" fill="#D8D8D8" x="11.5" y="15.75" width="2.25" height="2.25"></rect>
                                <rect id="Rectangle-path" fill="#D8D8D8" x="16" y="15.75" width="2.25" height="2.25"></rect>
                                <rect id="Rectangle-path" fill="#D8D8D8" x="2.5" y="20.25" width="2.25" height="2.25"></rect>
                                <rect id="Rectangle-path" fill="#D8D8D8" x="7" y="20.25" width="2.25" height="2.25"></rect>
                                <rect id="Rectangle-path" fill="#D8D8D8" x="11.5" y="20.25" width="2.25" height="2.25"></rect>
                                <rect id="Rectangle-path" fill="#D8D8D8" x="16" y="20.25" width="2.25" height="2.25"></rect>
                                <rect id="Rectangle-path" fill="#69C300" x="13.75" y="22.5" width="2.25" height="2.25"></rect>
                                <rect id="Rectangle-path" fill="#69C300" x="18.25" y="18" width="2.25" height="2.25"></rect>
                                <rect id="Rectangle-path" fill="#288BFF" x="16" y="18" width="2.25" height="2.25"></rect>
                                <rect id="Rectangle-path" fill="#565656" x="18.25" y="20.25" width="2.25" height="2.25"></rect>
                                <rect id="Rectangle-path" fill="#69C300" x="13.75" y="18" width="2.25" height="2.25"></rect>
                                <rect id="Rectangle-path" fill="#288BFF" x="11.5" y="18" width="2.25" height="2.25"></rect>
                                <rect id="Rectangle-path" fill="#565656" x="13.75" y="20.25" width="2.25" height="2.25"></rect>
                                <rect id="Rectangle-path" fill="#69C300" x="9.25" y="18" width="2.25" height="2.25"></rect>
                                <rect id="Rectangle-path" fill="#288BFF" x="7" y="18" width="2.25" height="2.25"></rect>
                                <rect id="Rectangle-path" fill="#565656" x="9.25" y="20.25" width="2.25" height="2.25"></rect>
                                <rect id="Rectangle-path" fill="#69C300" x="4.75" y="18" width="2.25" height="2.25"></rect>
                                <rect id="Rectangle-path" fill="#288BFF" x="2.5" y="18" width="2.25" height="2.25"></rect>
                                <rect id="Rectangle-path" fill="#565656" x="4.75" y="20.25" width="2.25" height="2.25"></rect>
                                <rect id="Rectangle-path" fill="#69C300" x="18.25" y="13.5" width="2.25" height="2.25"></rect>
                                <rect id="Rectangle-path" fill="#288BFF" x="16" y="13.5" width="2.25" height="2.25"></rect>
                                <rect id="Rectangle-path" fill="#565656" x="18.25" y="15.75" width="2.25" height="2.25"></rect>
                                <rect id="Rectangle-path" fill="#69C300" x="13.75" y="13.5" width="2.25" height="2.25"></rect>
                                <rect id="Rectangle-path" fill="#288BFF" x="11.5" y="13.5" width="2.25" height="2.25"></rect>
                                <rect id="Rectangle-path" fill="#565656" x="13.75" y="15.75" width="2.25" height="2.25"></rect>
                                <rect id="Rectangle-path" fill="#69C300" x="9.25" y="13.5" width="2.25" height="2.25"></rect>
                                <rect id="Rectangle-path" fill="#288BFF" x="7" y="13.5" width="2.25" height="2.25"></rect>
                                <rect id="Rectangle-path" fill="#565656" x="9.25" y="15.75" width="2.25" height="2.25"></rect>
                                <rect id="Rectangle-path" fill="#69C300" x="4.75" y="13.5" width="2.25" height="2.25"></rect>
                                <rect id="Rectangle-path" fill="#288BFF" x="2.5" y="13.5" width="2.25" height="2.25"></rect>
                                <rect id="Rectangle-path" fill="#565656" x="4.75" y="15.75" width="2.25" height="2.25"></rect>
                                <rect id="Rectangle-path" fill="#69C300" x="18.25" y="9" width="2.25" height="2.25"></rect>
                                <rect id="Rectangle-path" fill="#288BFF" x="16" y="9" width="2.25" height="2.25"></rect>
                                <rect id="Rectangle-path" fill="#565656" x="18.25" y="11.25" width="2.25" height="2.25"></rect>
                                <rect id="Rectangle-path" fill="#69C300" x="13.75" y="9" width="2.25" height="2.25"></rect>
                                <rect id="Rectangle-path" fill="#288BFF" x="11.5" y="9" width="2.25" height="2.25"></rect>
                                <rect id="Rectangle-path" fill="#565656" x="13.75" y="11.25" width="2.25" height="2.25"></rect>
                                <rect id="Rectangle-path" fill="#69C300" x="9.25" y="9" width="2.25" height="2.25"></rect>
                                <rect id="Rectangle-path" fill="#288BFF" x="7" y="9" width="2.25" height="2.25"></rect>
                                <rect id="Rectangle-path" fill="#565656" x="9.25" y="11.25" width="2.25" height="2.25"></rect>
                                <rect id="Rectangle-path" fill="#69C300" x="4.75" y="9" width="2.25" height="2.25"></rect>
                                <rect id="Rectangle-path" fill="#288BFF" x="2.5" y="9" width="2.25" height="2.25"></rect>
                                <rect id="Rectangle-path" fill="#565656" x="4.75" y="11.25" width="2.25" height="2.25"></rect>
                                <rect id="Rectangle-path" fill="#69C300" x="13.75" y="4.5" width="2.25" height="2.25"></rect>
                                <rect id="Rectangle-path" fill="#288BFF" x="11.5" y="4.5" width="2.25" height="2.25"></rect>
                                <rect id="Rectangle-path" fill="#565656" x="13.75" y="6.75" width="2.25" height="2.25"></rect>
                                <rect id="Rectangle-path" fill="#69C300" x="9.25" y="4.5" width="2.25" height="2.25"></rect>
                                <rect id="Rectangle-path" fill="#288BFF" x="7" y="4.5" width="2.25" height="2.25"></rect>
                                <rect id="Rectangle-path" fill="#565656" x="9.25" y="6.75" width="2.25" height="2.25"></rect>
                                <rect id="Rectangle-path" fill="#69C300" x="4.75" y="4.5" width="2.25" height="2.25"></rect>
                                <rect id="Rectangle-path" fill="#288BFF" x="2.5" y="4.5" width="2.25" height="2.25"></rect>
                                <rect id="Rectangle-path" fill="#565656" x="4.75" y="6.75" width="2.25" height="2.25"></rect>
                                <rect id="Rectangle-path" fill="#69C300" x="0.25" y="0" width="2.25" height="2.25"></rect>
                                <rect id="Rectangle-path" fill="#565656" x="0.25" y="2.25" width="2.25" height="2.25"></rect>
                                <rect id="Rectangle-path" fill="#69C300" x="0.25" y="0" width="2.25" height="2.25"></rect>
                                <rect id="Rectangle-path" fill="#565656" x="0.25" y="2.25" width="2.25" height="2.25"></rect>
                                <rect id="Rectangle-path" fill="#69C300" x="18.25" y="22.5" width="2.25" height="2.25"></rect>
                                <rect id="Rectangle-path" fill="#288BFF" x="16" y="22.5" width="2.25" height="2.25"></rect>
                                <rect id="Rectangle-path" fill="#69C300" x="0.25" y="0" width="2.25" height="2.25"></rect>
                                <rect id="Rectangle-path" fill="#565656" x="0.25" y="2.25" width="2.25" height="2.25"></rect>
                                <rect id="Rectangle-path" fill="#69C300" x="0.25" y="0" width="2.25" height="2.25"></rect>
                                <rect id="Rectangle-path" fill="#565656" x="0.25" y="2.25" width="2.25" height="2.25"></rect>
                                <rect id="Rectangle-path" fill="#69C300" x="18.25" y="22.5" width="2.25" height="2.25"></rect>
                                <rect id="Rectangle-path" fill="#288BFF" x="16" y="22.5" width="2.25" height="2.25"></rect>
                            </g>
                        </g>
                    </g>
                </g>
            </g>
        </g>
    </g>
</svg>