<?xml version="1.0" encoding="UTF-8" standalone="no"?>
<svg width="72px" height="72px" viewBox="0 0 72 72" version="1.1" xmlns="http://www.w3.org/2000/svg" xmlns:xlink="http://www.w3.org/1999/xlink" xmlns:sketch="http://www.bohemiancoding.com/sketch/ns">
    <!-- Generator: Sketch 3.5.2 (25235) - http://www.bohemiancoding.com/sketch -->
    <title>JavaScript</title>
    <desc>Created with Sketch.</desc>
    <defs></defs>
    <g id="Page-1" stroke="none" stroke-width="1" fill="none" fill-rule="evenodd" sketch:type="MSPage">
        <g id="cu7io.us" sketch:type="MSArtboardGroup" transform="translate(-881.000000, -1585.000000)">
            <g id="About-Me" sketch:type="MSLayerGroup" transform="translate(424.000000, 1460.000000)">
                <g id="JavaScript" transform="translate(393.000000, 125.000000)" sketch:type="MSShapeGroup">
                    <g transform="translate(64.000000, 0.000000)" id="Shape">
                        <path d="M0,0 L72,0 L72,72 L0,72 L0,0 L0,0 Z" fill="#F7DF1E"></path>
                        <path d="M18.9314286,60.1684571 L24.4413714,56.8339428 C25.5043428,58.7186286 26.4713143,60.3132573 28.7907429,60.3132573 C31.0140571,60.3132573 32.4157714,59.4435428 32.4157714,56.0606858 L32.4157714,33.0549713 L39.181943,33.0549713 L39.181943,56.1563429 C39.181943,63.1643428 35.0740572,66.3541715 29.0808,66.3541715 C23.6681143,66.3541715 20.5261714,63.5508571 18.9313143,60.1678856" fill="#000000"></path>
                        <path d="M42.8571428,59.4434287 L48.3663999,56.2536 C49.8166858,58.6220572 51.7016,60.3618286 55.0362285,60.3618286 C57.8397715,60.3618286 59.6275428,58.9601143 59.6275428,57.0268572 C59.6275428,54.7069714 57.7910858,53.885257 54.6978285,52.5324572 L53.0067428,51.8069714 C48.1250287,49.7291428 44.8867429,47.1193144 44.8867429,41.6094857 C44.8867429,36.5347429 48.7531429,32.6681142 54.7947428,32.6681142 C59.0962286,32.6681142 62.1893714,34.1665144 64.4123427,38.0813715 L59.1442284,41.464343 C57.9842286,39.3862857 56.7280001,38.5648 54.7948572,38.5648 C52.8132572,38.5648 51.5565714,39.8213713 51.5565714,41.464343 C51.5565714,43.4942857 52.8132572,44.3161142 55.7128001,45.5727999 L57.4042286,46.2977142 C63.1556573,48.7627428 66.3939428,51.2756572 66.3939428,56.9301713 C66.3939428,63.0202286 61.6092573,66.354743 55.1813715,66.354743 C48.8984001,66.354743 44.8385144,63.3584 42.8572572,59.4434287" fill="#000000"></path>
                    </g>
                </g>
            </g>
        </g>
    </g>
</svg>