<?xml version="1.0" encoding="UTF-8" standalone="no"?>
<svg width="199px" height="95px" viewBox="0 0 199 95" version="1.1" xmlns="http://www.w3.org/2000/svg" xmlns:xlink="http://www.w3.org/1999/xlink" xmlns:sketch="http://www.bohemiancoding.com/sketch/ns">
    <!-- Generator: Sketch 3.5.2 (25235) - http://www.bohemiancoding.com/sketch -->
    <title>n_n_n</title>
    <desc>Created with Sketch.</desc>
    <defs>
        <linearGradient x1="68.1884411%" y1="17.4868311%" x2="27.8226935%" y2="89.7551419%" id="linearGradient-1">
            <stop stop-color="#41873F" offset="0%"></stop>
            <stop stop-color="#418B3D" offset="32.88%"></stop>
            <stop stop-color="#419637" offset="63.52%"></stop>
            <stop stop-color="#3FA92D" offset="93.19%"></stop>
            <stop stop-color="#3FAE2A" offset="100%"></stop>
        </linearGradient>
        <linearGradient x1="68.1884411%" y1="24.9579518%" x2="27.8226935%" y2="80.6199061%" id="linearGradient-2">
            <stop stop-color="#41873F" offset="0%"></stop>
            <stop stop-color="#418B3D" offset="32.88%"></stop>
            <stop stop-color="#419637" offset="63.52%"></stop>
            <stop stop-color="#3FA92D" offset="93.19%"></stop>
            <stop stop-color="#3FAE2A" offset="100%"></stop>
        </linearGradient>
        <path id="path-3" d="M42.797337,0.637027189 C41.4305558,-0.143254919 39.8075031,-0.143254919 38.4407218,0.637027189 L2.47729096,21.7046442 C1.11050974,22.4849263 0.341695305,23.9587925 0.341695305,25.5193567 L0.341695305,67.7412886 C0.341695305,69.3018529 1.19593357,70.775719 2.47729096,71.5560012 L38.4407218,92.6236185 C39.8075031,93.4039001 41.4305558,93.4039001 42.797337,92.6236185 L78.7607676,71.5560012 C80.1275488,70.775719 80.8963636,69.3018529 80.8963636,67.7412886 L80.8963636,25.5193567 C80.8963636,23.9587925 80.0421255,22.4849263 78.7607676,21.7046442 L42.797337,0.637027189 L42.797337,0.637027189 L42.797337,0.637027189 Z"></path>
        <linearGradient x1="43.2765472%" y1="53.8007318%" x2="159.245277%" y2="-0.227221469%" id="linearGradient-5">
            <stop stop-color="#41873F" offset="13.76%"></stop>
            <stop stop-color="#54A044" offset="40.32%"></stop>
            <stop stop-color="#66B848" offset="71.36%"></stop>
            <stop stop-color="#6CC04A" offset="90.81%"></stop>
        </linearGradient>
        <path id="path-6" d="M42.797337,0.637027189 C41.4305558,-0.143254919 39.8075031,-0.143254919 38.4407218,0.637027189 L2.47729096,21.7046442 C1.11050974,22.4849263 0.341695305,23.9587925 0.341695305,25.5193567 L0.341695305,67.7412886 C0.341695305,69.3018529 1.19593357,70.775719 2.47729096,71.5560012 L38.4407218,92.6236185 C39.8075031,93.4039001 41.4305558,93.4039001 42.797337,92.6236185 L78.7607676,71.5560012 C80.1275488,70.775719 80.8963636,69.3018529 80.8963636,67.7412886 L80.8963636,25.5193567 C80.8963636,23.9587925 80.0421255,22.4849263 78.7607676,21.7046442 L42.797337,0.637027189 L42.797337,0.637027189 L42.797337,0.637027189 Z"></path>
        <linearGradient x1="-4.38880435%" y1="49.9972065%" x2="101.499239%" y2="49.9972065%" id="linearGradient-8">
            <stop stop-color="#6CC04A" offset="9.191646%"></stop>
            <stop stop-color="#66B848" offset="28.64%"></stop>
            <stop stop-color="#54A044" offset="59.68%"></stop>
            <stop stop-color="#41873F" offset="86.24%"></stop>
        </linearGradient>
        <linearGradient x1="-9713.77%" y1="36.21%" x2="27.93%" y2="36.21%" id="linearGradient-9">
            <stop stop-color="#6CC04A" offset="9.191646%"></stop>
            <stop stop-color="#66B848" offset="28.64%"></stop>
            <stop stop-color="#54A044" offset="59.68%"></stop>
            <stop stop-color="#41873F" offset="86.24%"></stop>
        </linearGradient>
        <linearGradient x1="-103.860714%" y1="50.2754209%" x2="100.796849%" y2="50.2754209%" id="linearGradient-10">
            <stop stop-color="#6CC04A" offset="9.191646%"></stop>
            <stop stop-color="#66B848" offset="28.64%"></stop>
            <stop stop-color="#54A044" offset="59.68%"></stop>
            <stop stop-color="#41873F" offset="86.24%"></stop>
        </linearGradient>
        <linearGradient x1="81.3837046%" y1="-211.06936%" x2="32.2447066%" y2="201.605387%" id="linearGradient-11">
            <stop stop-color="#41873F" offset="0%"></stop>
            <stop stop-color="#418B3D" offset="32.88%"></stop>
            <stop stop-color="#419637" offset="63.52%"></stop>
            <stop stop-color="#3FA92D" offset="93.19%"></stop>
            <stop stop-color="#3FAE2A" offset="100%"></stop>
        </linearGradient>
    </defs>
    <g id="Page-1" stroke="none" stroke-width="1" fill="none" fill-rule="evenodd" sketch:type="MSPage">
        <g id="cu7io.us" sketch:type="MSArtboardGroup" transform="translate(-439.000000, -2002.000000)">
            <g id="About-Me" sketch:type="MSLayerGroup" transform="translate(424.000000, 1460.000000)">
                <g id="Server-Side-JS" transform="translate(14.000000, 542.000000)">
                    <g id="n_n_n" transform="translate(1.000000, 0.000000)">
                        <g id="nodejs">
                            <g id="mask-3" transform="translate(0.174972, 0.858151)" fill="#FFFFFF" sketch:type="MSShapeGroup">
                                <path d="M42.797337,0.637027189 C41.4305558,-0.143254919 39.8075031,-0.143254919 38.4407218,0.637027189 L2.47729096,21.7046442 C1.11050974,22.4849263 0.341695305,23.9587925 0.341695305,25.5193567 L0.341695305,67.7412886 C0.341695305,69.3018529 1.19593357,70.775719 2.47729096,71.5560012 L38.4407218,92.6236185 C39.8075031,93.4039001 41.4305558,93.4039001 42.797337,92.6236185 L78.7607676,71.5560012 C80.1275488,70.775719 80.8963636,69.3018529 80.8963636,67.7412886 L80.8963636,25.5193567 C80.8963636,23.9587925 80.0421255,22.4849263 78.7607676,21.7046442 L42.797337,0.637027189 L42.797337,0.637027189 L42.797337,0.637027189 Z" id="path-2"></path>
                            </g>
                            <g id="path-2-link" transform="translate(0.174972, 0.858151)" fill="url(#linearGradient-2)" sketch:type="MSShapeGroup">
                                <path d="M42.797337,0.637027189 C41.4305558,-0.143254919 39.8075031,-0.143254919 38.4407218,0.637027189 L2.47729096,21.7046442 C1.11050974,22.4849263 0.341695305,23.9587925 0.341695305,25.5193567 L0.341695305,67.7412886 C0.341695305,69.3018529 1.19593357,70.775719 2.47729096,71.5560012 L38.4407218,92.6236185 C39.8075031,93.4039001 41.4305558,93.4039001 42.797337,92.6236185 L78.7607676,71.5560012 C80.1275488,70.775719 80.8963636,69.3018529 80.8963636,67.7412886 L80.8963636,25.5193567 C80.8963636,23.9587925 80.0421255,22.4849263 78.7607676,21.7046442 L42.797337,0.637027189 L42.797337,0.637027189 L42.797337,0.637027189 Z" id="path-2"></path>
                            </g>
                            <g id="Clipped" transform="translate(0.174972, 0.858151)">
                                <mask id="mask-4" sketch:name="path-2" fill="white">
                                    <use xlink:href="#path-3"></use>
                                </mask>
                                <g id="path-2"></g>
                                <g id="Group" mask="url(#mask-4)" sketch:type="MSShapeGroup">
                                    <path d="M38.355298,0.637027189 L2.30644331,21.7046442 C0.93966209,22.4849263 0,23.9587925 0,25.5193567 L0,67.7412886 C0,68.7816648 0.427119131,69.7353429 1.11050974,70.515625 L41.6014034,0.11683912 C40.5763175,-0.0565569065 39.3803839,0.0301411081 38.355298,0.637027189 L38.355298,0.637027189 L38.355298,0.637027189 Z" id="Shape"></path>
                                    <path d="M41.8576749,93.0571084 C42.1993702,92.9704101 42.5410654,92.7970143 42.8827608,92.6236185 L78.9316158,71.5560012 C80.298397,70.775719 81.1526352,69.3018529 81.1526352,67.7412886 L81.1526352,25.5193567 C81.1526352,24.3922825 80.640092,23.2652084 79.8712772,22.4849263 L41.8576749,93.0571084 L41.8576749,93.0571084 L41.8576749,93.0571084 Z" id="Shape"></path>
                                    <path d="M78.8461917,21.7046442 L42.7119131,0.637027189 C42.3702178,0.463631166 41.9430987,0.290235143 41.6014034,0.203537131 L1.11050974,70.602323 C1.45220504,71.0358131 1.87932418,71.3826052 2.30644331,71.6426991 L38.4407218,92.710316 C39.4658077,93.3172026 40.6617413,93.4905984 41.7722511,93.143806 L79.7858539,22.5716243 C79.5295823,22.2248322 79.1878866,21.9647382 78.8461917,21.7046442 L78.8461917,21.7046442 L78.8461917,21.7046442 Z" id="Shape" fill="url(#linearGradient-5)"></path>
                                </g>
                            </g>
                            <g id="Clipped" transform="translate(0.174972, 0.858151)">
                                <mask id="mask-7" sketch:name="path-2" fill="white">
                                    <use xlink:href="#path-6"></use>
                                </mask>
                                <g id="path-2"></g>
                                <g id="Group" mask="url(#mask-7)" sketch:type="MSShapeGroup">
                                    <g transform="translate(0.000000, -7.685982)" id="Shape">
                                        <path d="M81.1526352,75.4272706 L81.1526352,33.2053387 C81.1526352,31.6447745 80.2129729,30.1709082 78.8461917,29.3906261 L42.7119131,8.32300918 C42.284794,8.06291511 41.8576749,7.88951912 41.3451319,7.80282112 L80.8963636,76.3809488 C81.067211,76.1208547 81.1526352,75.774063 81.1526352,75.4272706 L81.1526352,75.4272706 L81.1526352,75.4272706 Z" fill="none"></path>
                                        <path d="M2.30644331,29.3906261 C0.93966209,30.1709082 1.52766688e-13,31.6447745 1.52766688e-13,33.2053387 L1.52766688e-13,75.4272706 C1.52766688e-13,76.9878346 1.02508592,78.4617012 2.30644331,79.2419829 L38.4407218,100.3096 C39.2949601,100.829788 40.2346222,101.003184 41.2597081,100.829788 L2.56271479,29.3039281 L2.30644331,29.3906261 L2.30644331,29.3906261 L2.30644331,29.3906261 Z" fill="none"></path>
                                        <path d="M78.9316158,79.2419829 C79.9567014,78.635097 80.7255161,77.5947212 81.067211,76.4676471 L41.4305558,7.80282112 C40.4054698,7.62942505 39.2949601,7.71612305 38.355298,8.32300918 L2.47729096,29.3039281 L41.1742843,100.916487 C41.6868272,100.829788 42.284794,100.656392 42.797337,100.396298 L78.9316158,79.2419829 L78.9316158,79.2419829 L78.9316158,79.2419829 Z" fill="url(#linearGradient-8)" fill-rule="evenodd"></path>
                                        <path fill="url(#linearGradient-9)" fill-rule="evenodd" d="M82.2631448,78.5483987 L82.0068733,78.1149088 L82.0068733,78.7217953 L82.2631448,78.5483987 L82.2631448,78.5483987 Z"></path>
                                        <path d="M78.9316158,79.2419829 L42.8827608,100.3096 C42.3702178,100.569694 41.8576749,100.74309 41.2597081,100.829788 L41.9430987,102.130258 L81.9214492,78.635097 L81.9214492,78.1149088 L80.8963636,76.3809488 C80.7255161,77.5947212 79.9567014,78.635097 78.9316158,79.2419829 L78.9316158,79.2419829 L78.9316158,79.2419829 Z" fill="url(#linearGradient-10)" fill-rule="evenodd"></path>
                                        <path d="M78.9316158,79.2419829 L42.8827608,100.3096 C42.3702178,100.569694 41.8576749,100.74309 41.2597081,100.829788 L41.9430987,102.130258 L81.9214492,78.635097 L81.9214492,78.1149088 L80.8963636,76.3809488 C80.7255161,77.5947212 79.9567014,78.635097 78.9316158,79.2419829 L78.9316158,79.2419829 L78.9316158,79.2419829 Z" fill="url(#linearGradient-11)" fill-rule="evenodd"></path>
                                    </g>
                                </g>
                            </g>
                        </g>
                        <g id="npm" transform="translate(115.666667, 1.130952)" sketch:type="MSShapeGroup">
                            <g id="Group">
                                <path d="M2.59259259,23.6676467 L42.2222223,0.483772652 L81.8518519,23.6676467 L81.8518519,69.9981815 L42.2222223,93.1820557 L2.59259259,69.9981815 L2.59259259,23.6676467 L2.59259259,23.6676467 Z" id="Shape" fill="#CC0000"></path>
                                <path d="M43.3333333,46.8143073 L80.1851852,25.4910975 L81.6666667,68.472437 L43.3333333,91.7307375 L43.3333333,46.8143073 L43.3333333,46.8143073 Z" id="Shape" fill="#FFFFFF"></path>
                                <path d="M80.7407409,24.1886326 L80.6296296,69.7376887 L42.1851852,92.1400838 L42,47.3725066 L80.7407409,24.1886326 L80.7407409,24.1886326 L80.7407409,24.1886326 Z M48.4074076,51.0938348 L48.5185186,81.0133126 L61.2962962,73.5334432 L61.2592591,50.9821951 L67.7037038,47.1492269 L67.7037038,69.7749017 L74.1481481,65.9791472 L74.1851852,35.6875365 L48.4074076,51.0938348 L48.4074076,51.0938348 L48.4074076,51.0938348 Z" id="Shape" fill="#CC0000"></path>
                                <path d="M44.7407409,0.818692181 C42.9629629,-0.186066405 40.111111,-0.186066405 38.3333333,0.818692181 L3.22222222,21.0999303 C1.44444444,22.1046889 0.0370370371,24.635192 0.0370370371,26.6447092 L0.0370370371,67.2071856 C0.0370370371,69.2539158 1.48148148,71.7472059 3.22222222,72.7519645 L38.3333333,93.0332023 C40.111111,94.0379609 42.9629629,94.0379609 44.7407409,93.0332023 L79.8518519,72.7519645 C81.6296296,71.7472059 83.0370371,69.2167027 83.0370371,67.2071856 L83.0370371,26.6447092 C83.0370371,24.5979787 81.5925924,22.1046889 79.8518519,21.0999303 L44.7407409,0.818692181 L44.7407409,0.818692181 L44.7407409,0.818692181 Z M75.888889,22.0302623 C77.6666667,23.0350209 77.6666667,24.7096186 75.888889,25.7143771 L45.1481481,43.465112 C43.3703704,44.4698706 40.5185186,44.4698706 38.7407409,43.465112 L7.55555557,25.4538842 C5.77777777,24.4491256 5.77777777,22.774528 7.55555557,21.7697694 L38.2962962,4.01903435 C40.0740742,3.01427576 42.9259258,3.01427576 44.7037038,4.01903435 L75.888889,22.0302623 L75.888889,22.0302623 L75.888889,22.0302623 Z M2.77777778,29.5845584 C2.77777778,27.5378279 4.22222223,26.7191357 5.96296296,27.7238943 L37.4074076,45.8839754 C39.1851852,46.888734 40.5925924,49.4192372 40.5925924,51.4287543 L40.5925924,87.4512104 C40.5925924,89.4979409 39.1481481,90.316633 37.4074076,89.3118745 L5.96296296,71.1517932 C4.18518519,70.1470346 2.77777778,67.6165315 2.77777778,65.6070143 L2.77777778,29.5845584 L2.77777778,29.5845584 L2.77777778,29.5845584 Z M46.5925924,88.7536751 C44.8148148,89.7584337 43.4074076,88.9397416 43.4074076,86.893011 L43.4074076,51.4287543 C43.4074076,49.3820238 44.8518519,46.888734 46.5925924,45.8839754 L77.111111,28.2820935 C78.888889,27.277335 80.2962962,28.0960271 80.2962962,30.1427576 L80.2962962,65.6070143 C80.2962962,67.6537448 78.8518519,70.1470346 77.111111,71.1517932 L46.5925924,88.7536751 L46.5925924,88.7536751 L46.5925924,88.7536751 Z" id="Shape" fill="#910505"></path>
                            </g>
                        </g>
                    </g>
                </g>
            </g>
        </g>
    </g>
</svg>