<?xml version="1.0" encoding="UTF-8" standalone="no"?>
<svg width="201px" height="89px" viewBox="0 0 201 89" version="1.1" xmlns="http://www.w3.org/2000/svg" xmlns:xlink="http://www.w3.org/1999/xlink" xmlns:sketch="http://www.bohemiancoding.com/sketch/ns">
    <!-- Generator: Sketch 3.5.2 (25235) - http://www.bohemiancoding.com/sketch -->
    <title>OSs</title>
    <desc>Created with Sketch.</desc>
    <defs>
        <linearGradient x1="50%" y1="3.96111359%" x2="50%" y2="100%" id="linearGradient-1">
            <stop stop-color="#FDFDFD" offset="0%"></stop>
            <stop stop-color="#CBCBCB" offset="100%"></stop>
        </linearGradient>
        <linearGradient x1="50%" y1="0%" x2="50%" y2="100%" id="linearGradient-2">
            <stop stop-color="#58B0E3" offset="0%"></stop>
            <stop stop-color="#F44E28" offset="100%"></stop>
        </linearGradient>
    </defs>
    <g id="Page-1" stroke="none" stroke-width="1" fill="none" fill-rule="evenodd" sketch:type="MSPage">
        <g id="cu7io.us" sketch:type="MSArtboardGroup" transform="translate(-812.000000, -2451.000000)">
            <g id="About-Me" sketch:type="MSLayerGroup" transform="translate(424.000000, 1460.000000)">
                <g id="OS's" transform="translate(388.000000, 991.000000)" sketch:type="MSShapeGroup">
                    <g id="OSs">
                        <g id="macosx" transform="translate(116.000000, 0.000000)">
                            <g id="Ovals">
                                <ellipse id="Oval" fill="url(#linearGradient-1)" cx="42.1052632" cy="44.4527753" rx="42.0584796" ry="44.4033834"></ellipse>
                                <ellipse id="Oval" fill="#F7F7F7" cx="42.1052632" cy="44.4527753" rx="38.8663968" ry="41.0333311"></ellipse>
                            </g>
                            <path d="M59.9689672,19.9024288 L57.6082803,19.9024288 L42.1757313,43.449113 L42.034795,43.449113 L26.63748,19.9024288 L24.2415591,19.9024288 L40.8720685,45.2346435 L24.3120273,70.4180641 L26.6727141,70.4180641 L41.9995605,46.945777 L42.1404974,46.945777 L57.467344,70.4180641 L59.8632646,70.4180641 L43.3032236,45.2346435 L59.9689672,19.9024288 L59.9689672,19.9024288 L59.9689672,19.9024288 Z" id="Shape" fill="url(#linearGradient-2)"></path>
                        </g>
                        <g id="linux">
                            <g id="Ovals">
                                <ellipse id="Oval" fill="url(#linearGradient-1)" cx="42.1052632" cy="44.4527753" rx="42.0584796" ry="44.4033834"></ellipse>
                                <path d="M81.871345,44.4527753 C81.871345,67.6394415 64.0674618,86.435952 42.1052632,86.435952 C20.1430646,86.435952 2.33918129,67.6394415 2.33918129,44.4527753 C2.33918129,21.2661092 20.1430646,2.46959863 42.1052632,2.46959863 C64.0674618,2.46959863 81.871345,21.2661092 81.871345,44.4527753 L81.871345,44.4527753 Z" id="Oval" fill="#FFCC00"></path>
                            </g>
                            <path d="M43.3076365,14.2253131 C42.9449888,14.2247612 42.5667304,14.2406571 42.1722706,14.2738841 C32.2027503,15.1215532 34.846732,26.2410477 34.6987704,29.9646119 C34.5167015,32.6876243 33.9937595,34.8335469 32.2198771,37.4956193 C30.1358305,40.1120956 27.2017286,44.3468918 25.8117717,48.7551694 C25.1557729,50.8356867 24.8436116,52.9562916 25.1319021,54.9633065 C25.0415943,55.0486867 24.9556206,55.1381401 24.873871,55.2302815 C24.2619962,55.9199292 23.8098877,56.7555438 23.306127,57.3181452 C22.8354854,57.8138013 22.1649267,58.0023341 21.4280515,58.2814463 C20.6908834,58.5606855 19.8815329,58.9723635 19.3902566,59.9676553 C19.3902566,59.9676553 19.3902566,59.9680472 19.3898854,59.9680472 C19.3893626,59.969703 19.3877942,59.9713588 19.3872714,59.9730147 L19.3872714,59.9730147 C18.9425396,60.8499809 19.0747546,61.8598826 19.210577,62.795548 C19.3464045,63.7311858 19.483905,64.6153272 19.3013866,65.2151848 C18.7179779,66.8987278 18.6434848,68.0632565 19.0541931,68.9079671 C19.4657744,69.754433 20.3120186,70.1280434 21.2684576,70.3389409 C23.1813409,70.760736 25.7718876,70.655933 27.8135355,71.7983564 L27.9890223,71.4487776 L27.8153548,71.799394 C30.0010381,73.0058538 32.2168972,73.4343661 33.9847569,73.0080506 C35.2664899,72.6989789 36.3069526,71.8932299 36.8412916,70.6533886 C38.2240444,70.6462685 39.7413752,70.0279209 42.1719413,69.8866344 C43.8208389,69.7464077 45.8806121,70.5048165 48.2498489,70.365931 C48.3117793,70.6373049 48.4014126,70.898319 48.5241023,71.1463623 C48.5256707,71.149122 48.5267163,71.1513298 48.5277619,71.1539239 C49.4462041,73.0929008 51.1527347,73.9797689 52.9713736,73.8282439 C54.7924121,73.6765147 56.7285441,72.5428893 58.2936062,70.5765139 L58.0066907,70.3219576 L58.295802,70.5737266 C59.7875419,68.6640799 62.263586,67.8722344 63.9054049,66.8267765 C64.7263144,66.304042 65.3924188,65.649509 65.443888,64.6988307 C65.4953311,63.7486161 64.9669311,62.6837684 63.7519016,61.2598319 L63.7515304,61.25944 C63.7511593,61.2588881 63.7504849,61.2583361 63.7499621,61.2572323 C63.3507448,60.7809328 63.1602956,59.8981656 62.9556263,58.9580958 C62.7510982,58.0185999 62.5227985,57.0051436 61.7922125,56.3483642 L61.7922125,56.3483642 C61.7906441,56.3467083 61.7890757,56.3456045 61.7880301,56.3445006 L61.7880301,56.3445006 C61.497272,56.0770123 61.195117,55.8954671 60.8908343,55.7734931 C61.9065792,52.5931073 61.5080469,49.4262166 60.4827138,46.5644456 C59.2243498,43.0522591 57.0274317,39.9919265 55.3496078,37.8983944 C53.4715584,35.3974508 51.6346582,33.0230072 51.6708461,29.516031 C51.7267853,24.1636213 52.2285018,14.2377429 43.3072653,14.2248881 L43.3076365,14.2253131 Z M44.5153991,22.4712195 C45.0216274,22.4712195 45.4539794,22.6278776 45.8981048,22.9682003 C46.3492827,23.3139211 46.6743257,23.7467164 46.9362986,24.3510943 C47.1934148,24.9401062 47.3171239,25.5163019 47.329258,26.2000769 C47.329258,26.2180151 47.329258,26.2333591 47.3339631,26.2512973 C47.3386683,26.9529828 47.2248086,27.5496777 46.9725388,28.1591777 C46.828587,28.5069627 46.663279,28.7988634 46.4654165,29.0515762 C46.3982425,29.0175213 46.3284859,28.9847911 46.256131,28.95338 L46.256131,28.95338 C45.7545974,28.7265975 45.3698616,28.5822754 45.0492048,28.4648053 C45.165438,28.3172984 45.2622232,28.1423545 45.3473343,27.9236524 C45.4759002,27.5932978 45.5389651,27.2706152 45.5510939,26.8864847 C45.5510939,26.8711407 45.5557991,26.8582804 45.5557991,26.8403974 C45.5630659,26.471633 45.5170076,26.1566335 45.4151095,25.8339563 C45.3083756,25.4959186 45.1725428,25.2526386 44.9760605,25.0503238 C44.7795834,24.8480034 44.5831011,24.7558178 44.3478065,24.7481293 C44.3367755,24.7475773 44.3257968,24.7475773 44.3149226,24.7475773 C44.0936023,24.7481293 43.9014226,24.8284039 43.7025929,25.0041482 C43.4939818,25.1885414 43.3387428,25.4241329 43.2101769,25.751932 C43.0816162,26.0797257 43.0185462,26.4049583 43.0064277,26.7916663 C43.0038138,26.8070104 43.0038138,26.8198706 43.0038138,26.8352147 C42.9996314,27.0477736 43.0123876,27.2424936 43.0434417,27.4315839 C42.5905804,27.1933486 42.163817,27.0309282 41.763298,26.9302814 C41.7404519,26.7474336 41.7272774,26.5587407 41.7230428,26.3614486 L41.7230428,26.3076893 C41.7157759,25.6085592 41.82492,25.0093088 42.0796156,24.3998144 C42.3343112,23.7903144 42.6496511,23.3523915 43.0935464,22.9964267 C43.537447,22.6404619 43.9740651,22.4765623 44.4907388,22.4714458 L44.514892,22.4714458 L44.5153991,22.4712195 Z M37.5866049,23.0503847 C37.9224331,23.0509366 38.2229309,23.1696762 38.5337538,23.4317279 C38.8709309,23.7159787 39.1256213,24.0796265 39.3390787,24.5918134 C39.5525414,25.1040002 39.6665475,25.6161816 39.6980773,26.2205595 L39.6980773,26.225527 C39.7133429,26.4793602 39.7114609,26.7182965 39.6925357,26.9496987 C39.6261145,26.9696239 39.5610264,26.9912049 39.4972715,27.0143699 C39.1351675,27.1459588 38.8160478,27.3252907 38.5379153,27.5191939 C38.5651529,27.3163657 38.5691784,27.1105681 38.5483189,26.8811143 C38.5457049,26.8683092 38.5457049,26.858043 38.5457049,26.8452931 C38.5165852,26.5405487 38.4559566,26.284458 38.3540742,26.0258008 C38.2449196,25.7569106 38.1236363,25.5674008 37.9635406,25.4214229 C37.8184543,25.2891386 37.681372,25.2283972 37.5305559,25.229595 C37.5149766,25.229595 37.4991882,25.2301469 37.4832429,25.2318027 C37.3134441,25.2471467 37.1727546,25.3342268 37.0393423,25.505815 C36.9059301,25.6773921 36.8186075,25.889951 36.7555427,26.1716408 C36.6924726,26.4533471 36.6754922,26.7299315 36.7021705,27.047481 C36.7021705,27.0602861 36.7047845,27.0705523 36.7047845,27.0833021 C36.7339042,27.3906132 36.792107,27.6466983 36.89641,27.905361 C37.003144,28.1716958 37.1268479,28.3612 37.2869436,28.5071669 C37.313763,28.531618 37.3402792,28.5535854 37.3666856,28.5731959 C37.2001647,28.7084993 37.1206475,28.7708799 36.9841874,28.8767427 C36.8966662,28.9445434 36.7924312,29.0252706 36.6712837,29.119548 C36.4070732,28.858247 36.2009558,28.5298352 36.0207429,28.0974263 C35.8072802,27.5852449 35.6932741,27.0730581 35.6593133,26.4686801 L35.6593133,26.4637126 C35.6277888,25.8593457 35.6835711,25.3394703 35.841241,24.8016843 C35.998911,24.2638873 36.2099479,23.8746348 36.5155795,23.5545077 C36.8212163,23.2344026 37.1292737,23.073064 37.5004063,23.0525814 C37.5294215,23.0509256 37.5581334,23.0503737 37.5865892,23.0503737 L37.5866049,23.0503847 Z M40.7377872,27.2433216 C41.5183212,27.2400099 42.4575916,27.5103021 43.5946984,28.2821783 C44.2931691,28.7617121 44.836657,28.8017887 46.0881463,29.3676797 L46.0897146,29.3682316 L46.091283,29.3687836 C46.6934286,29.6296154 47.0468542,29.969596 47.2195284,30.3275975 C47.3922026,30.6856155 47.3964215,31.0738469 47.2518895,31.4822519 C46.9628409,32.2990894 46.0402059,33.158719 44.7454815,33.5855699 L44.7444359,33.5861219 L44.7433903,33.5866738 C44.1120936,33.8032177 43.5616002,34.2814159 42.9126121,34.6732184 C42.2636449,35.0650043 41.5292842,35.3809974 40.5307549,35.3200132 C40.5307549,35.3200077 40.5307549,35.3200132 40.5307549,35.3200132 C39.6806891,35.267689 39.1725526,34.9630328 38.7130884,34.5731842 C38.253619,34.1833301 37.8532254,33.6935631 37.266931,33.3300974 L37.2653626,33.3289935 L37.2637942,33.3278896 C36.3194056,32.76435 35.8038193,32.1125546 35.6420036,31.5474971 C35.4801826,30.9824396 35.6320705,30.5001184 36.1006052,30.1293836 C36.6274002,29.7125836 36.9933415,29.4290613 37.2371055,29.2401918 C37.4792645,29.0525918 37.5800124,28.9822466 37.65713,28.9040694 C37.6575012,28.9035174 37.6576528,28.9035174 37.6581756,28.9029655 L37.6585415,28.9024135 C38.0543658,28.5068578 38.6853332,27.7861909 39.6364502,27.4405419 C39.9638091,27.3215706 40.3290865,27.2448118 40.7379388,27.2431063 L40.7377872,27.2433216 Z M46.1958578,30.6513453 C45.859031,30.6725951 45.5062694,30.8556361 45.0955141,31.0977405 C44.6847587,31.339845 44.2228531,31.6495459 43.7222762,31.9545277 C42.7211277,32.5644913 41.5686716,33.1478347 40.423357,33.1478347 C39.2762701,33.1478347 38.359804,32.5885229 37.6724165,32.0134311 C37.3287202,31.7258796 37.0450565,31.4362419 36.8184246,31.212186 C36.7051138,31.100147 36.6068439,31.0046663 36.5151403,30.9300822 C36.4234576,30.8554981 36.3488286,30.7815488 36.1954089,30.7815488 L36.1880898,31.1219101 C36.1771111,31.2357981 36.1658187,31.2322878 36.1702625,31.2353897 C36.1774248,31.2403572 36.2130272,31.2532727 36.2545528,31.2871068 C36.3219726,31.3419147 36.4155478,31.431313 36.5266105,31.5411166 C36.7487359,31.7607293 37.0438907,32.0626699 37.4072807,32.3666969 C38.1340608,32.9747397 39.1448026,33.5985737 40.4233779,33.5985737 C41.7037411,33.5985737 42.915111,32.9667586 43.9357598,32.3449227 C44.4460764,32.034002 44.9095661,31.7236388 45.3036913,31.4913424 C45.6977904,31.2590294 46.0293788,31.1133661 46.2213546,31.1012785 L46.1958944,30.6513619 L46.1958578,30.6513453 Z M47.3339579,32.2689588 C48.1843478,35.8080636 50.1622512,40.9198812 51.4334969,43.4145436 C52.1092155,44.7380872 53.4535428,47.5501501 54.0343584,50.938188 C54.4023804,50.9262661 54.8076203,50.9827299 55.2415825,51.099924 C56.7601576,46.9435755 53.9538478,42.4666306 52.6705936,41.2198348 C52.152503,40.6890861 52.1276023,40.4512868 52.3844413,40.4625244 C53.7767194,41.7624061 55.6044759,44.3768899 56.2694616,47.3279378 C56.5726831,48.6735646 56.637332,50.0881953 56.3119648,51.4843029 C56.4711404,51.5541127 56.6328046,51.6300214 56.7966435,51.7119022 C59.2342464,52.9650675 60.13575,54.0547968 59.7023001,55.5420688 C59.5595403,55.5365494 59.4191069,55.5376533 59.2821292,55.5409649 C59.269373,55.5413568 59.2566691,55.5415169 59.2439128,55.5420688 C59.5969045,54.363151 58.8149119,53.4936415 56.7311424,52.4982669 C54.5698632,51.4943869 52.8476331,51.5942665 52.5565561,53.6301923 C52.5379446,53.7368553 52.5229404,53.845544 52.5115434,53.9557506 C52.350078,54.0149465 52.1877238,54.0905296 52.024967,54.1845531 C51.0101056,54.7708163 50.4561826,55.8345767 50.1480991,57.1392824 C49.8402718,58.4429394 49.7520134,60.0189805 49.6670591,61.7906303 L49.6670591,61.7917342 C49.6151455,62.6825818 49.268234,63.887474 48.9163873,65.1636719 C45.3758842,67.8299721 40.4619968,68.9851564 36.2899252,65.9791516 C36.0071816,65.506942 35.6828391,65.0390762 35.3489818,64.5776295 C35.135791,64.2829304 34.9167866,63.9900638 34.6990579,63.701287 C35.1273426,63.701287 35.4913861,63.6276026 35.7856051,63.4867466 C36.1514889,63.3115929 36.4085632,63.0302674 36.5357489,62.6690867 C36.7901099,61.946753 36.5347033,60.9277607 35.7203393,59.7641262 C34.9060954,58.6005745 33.5270598,57.2873964 31.5006514,55.9753443 C31.5006514,55.9753443 31.5002802,55.9753443 31.5002802,55.9749524 C30.011562,54.9971241 29.1789889,53.7986068 28.7892866,52.4973121 C28.3995476,51.1959014 28.4541955,49.7886612 28.7545729,48.3992874 C29.3311068,45.7324297 30.8124536,43.1386989 31.7576316,41.5109849 C32.0121024,41.3133064 31.848551,41.8779168 30.8007796,43.9320899 C29.8617444,45.8101819 28.1062174,50.1444052 30.509849,53.5276799 C30.5740849,51.1199706 31.1187178,48.6644078 32.0330195,46.3675177 C33.364784,43.1804093 36.1503335,37.6535634 36.3715702,33.2485919 C36.485639,33.3360418 36.8776155,33.6152645 37.0522763,33.7201282 C37.0526475,33.7206801 37.0527991,33.7206801 37.0533219,33.7206801 C37.5643338,34.0383842 37.9481285,34.5027949 38.4452027,34.9245513 C38.9432649,35.3471412 39.5654754,35.7121469 40.5055091,35.769974 L40.5055091,35.769974 C41.6027266,35.8370075 42.4389644,35.4782167 43.1241038,35.0645959 C43.8082081,34.6516098 44.3547178,34.1945511 44.8724894,34.0161409 C44.8730122,34.015589 44.8740578,34.015589 44.8745806,34.015589 C45.9686665,33.6543752 46.8385776,33.0150482 47.3336076,32.2693672 L47.3339579,32.2689588 Z M54.2830627,52.5302741 C54.7262105,52.5280663 55.2630328,52.6840897 55.8506552,52.9616233 C57.4321905,53.7324619 57.9270323,54.3931822 57.4952606,55.3637635 C57.1314157,56.0961923 55.5741276,57.2614054 54.5068298,56.9540999 C53.4177052,56.657033 52.8864768,55.0001156 53.0635529,53.747839 C53.1583985,52.8974489 53.6139888,52.5335747 54.2830627,52.5302741 L54.2830627,52.5302741 Z M52.493669,54.8186919 C52.5830723,56.3500697 53.3007192,57.9118982 54.5698946,58.2499193 C55.9587745,58.6362631 57.9612545,57.3781469 58.8067197,56.3519628 C58.9753056,56.3448428 59.1401222,56.3360669 59.3001918,56.3320377 C60.0418245,56.313106 60.6638573,56.3578134 61.2994043,56.9446506 L61.3014955,56.9468584 L61.3035867,56.9490662 C61.7919877,57.3859183 62.0241403,58.211482 62.2254951,59.1363238 C62.4268341,60.0611711 62.5878448,61.068429 63.1916738,61.7859884 L63.1927194,61.7870923 L63.1932422,61.7881962 C64.3541152,63.1482287 64.7272502,64.067518 64.6954956,64.6542503 C64.6637096,65.2410212 64.2613294,65.6766039 63.5182852,66.1497518 C62.0328396,67.0956502 59.4008404,67.9181727 57.7197072,70.0680251 C56.2599571,71.9020721 54.4799528,72.9093576 52.9123238,73.039975 C51.3446948,73.1705924 49.9922015,72.4836713 49.194823,70.7940458 L49.1927318,70.7901822 L49.1906407,70.7863186 C48.6959714,69.7928537 48.9020365,68.2250311 49.3187465,66.5712875 C49.7354617,64.9175493 50.3341726,63.2194957 50.4143172,61.8393558 L50.4143172,61.8371481 L50.4143172,61.8349403 C50.4990989,60.0666022 50.5928519,58.5223199 50.8742101,57.3307792 C51.1555735,56.1392384 51.598601,55.3322531 52.3835892,54.8787819 C52.4201326,54.8576977 52.4564303,54.8377726 52.4925137,54.8189182 L52.493669,54.8186919 Z M27.0020991,54.9342522 C27.1192628,54.9346441 27.2432543,54.9450703 27.375349,54.9662098 C28.2639187,55.1083186 29.0387856,55.7642315 29.7853326,56.833274 C30.5318848,57.902333 31.2265392,59.3616602 31.9406258,60.9804437 L31.9416714,60.9826515 L31.9421942,60.9848593 C32.5160304,62.2493173 33.7269298,63.6396846 34.7530941,65.0580631 C35.7792531,66.4764415 36.5734373,67.9001683 36.4700178,68.98987 L36.4696466,68.9948375 L36.4692755,68.999805 C36.335492,70.8583362 35.342473,71.870098 33.8180844,72.2376922 C32.2941507,72.6051595 30.2282347,72.2399 28.1647496,71.1003192 L28.1626584,71.1003192 C25.8796986,69.823757 23.1638429,69.9505439 21.4216995,69.5664079 C20.5503925,69.3742765 19.9818627,69.0854169 19.7209249,68.5487348 C19.4599714,68.0120803 19.4541422,67.0757913 20.0086664,65.4793504 L20.0112804,65.4722303 L20.0133716,65.4651102 C20.287604,64.5720549 20.0846547,63.5948999 19.9515144,62.6777247 C19.818374,61.7605494 19.7532598,60.9263036 20.0499045,60.3448203 L20.0514729,60.3420605 L20.0530413,60.3393008 C20.4328419,59.5663759 20.9899382,59.2900786 21.6813512,59.0281981 C22.3727642,58.7662954 23.1926281,58.5606193 23.8400478,57.875619 L23.8431846,57.8723073 L23.8463213,57.8689957 C24.4448387,57.2023971 24.8944169,56.3668212 25.4205846,55.7737691 C25.8645375,55.2733828 26.3088197,54.9417421 26.9784739,54.9368298 L27.0018429,54.9368298 L27.0020991,54.9342522 Z" id="Tux" fill="#333333"></path>
                        </g>
                    </g>
                </g>
            </g>
        </g>
    </g>
</svg>