<?xml version="1.0" encoding="UTF-8" standalone="no"?>
<svg width="181px" height="82px" viewBox="0 0 181 82" version="1.1" xmlns="http://www.w3.org/2000/svg" xmlns:xlink="http://www.w3.org/1999/xlink" xmlns:sketch="http://www.bohemiancoding.com/sketch/ns">
    <!-- Generator: Sketch 3.5.2 (25235) - http://www.bohemiancoding.com/sketch -->
    <title>r_n_r</title>
    <desc>Created with Sketch.</desc>
    <defs></defs>
    <g id="Page-1" stroke="none" stroke-width="1" fill="none" fill-rule="evenodd" sketch:type="MSPage">
        <g id="cu7io.us" sketch:type="MSArtboardGroup" transform="translate(-432.000000, -1722.000000)">
            <g id="About-Me" sketch:type="MSLayerGroup" transform="translate(424.000000, 1460.000000)">
                <g id="R'n'R" transform="translate(8.000000, 262.000000)" sketch:type="MSShapeGroup">
                    <g id="r_n_r">
                        <g id="react">
                            <g id="Group">
                                <path d="M0.271013353,40.9109911 C0.271013353,47.7613214 7.01377928,54.156383 17.6443063,57.7609872 C15.5214892,68.3631255 17.2638601,76.9083769 23.0835689,80.2381066 C29.0656272,83.6603948 37.9774189,81.2914558 46.435919,73.9564474 C54.681014,80.9953481 63.0141526,83.7655074 68.8284387,80.4263148 C74.8046476,76.9940915 76.6224814,67.8692619 74.4409562,56.9361987 C85.513213,53.304515 91.7067274,47.8514936 91.7067274,40.9109911 C91.7067274,34.2194794 84.9514509,28.4304204 74.4643055,24.8488494 C76.8128017,13.4639407 74.8228525,5.12604689 68.7622433,1.65880832 C62.9191806,-1.68382435 54.4893068,1.22962081 46.1229515,8.45286629 C37.4191805,0.785962028 29.0724842,-1.55484006 23.0177503,1.9225041 C17.1803667,5.27464494 15.5146175,13.9751873 17.6443062,24.7736049 C7.37273248,28.3264374 0.271013353,34.2462397 0.271013353,40.9109911 L0.271013353,40.9109911 Z" id="Shape" fill="#FFFFFF"></path>
                                <path d="M72.2431987,28.405555 C71.4008169,28.117909 70.5279371,27.8457492 69.6291844,27.5883591 C69.7769051,26.9902674 69.9124837,26.3999189 70.0330306,25.8196079 C72.0117896,16.2907212 70.718008,8.6141836 66.3001288,6.08674078 C62.0639371,3.6632578 55.1359687,6.19012706 48.1390543,12.2309821 C47.4662184,12.8118666 46.7915033,13.4268787 46.1170779,14.0714296 C45.6677014,13.6449792 45.2190479,13.2328681 44.771551,12.8386811 C37.4385799,6.37940562 30.0884085,3.65737869 25.6748657,6.19213456 C21.4427211,8.62264379 20.1894109,15.8393204 21.9705829,24.8699169 C22.142586,25.7421758 22.3436418,26.6329323 22.5710039,27.5386017 C21.5307463,27.8315534 20.5264792,28.1438631 19.5655742,28.4761043 C10.9684525,31.4496424 5.47793871,36.1099107 5.47793871,40.9438279 C5.47793871,45.936338 11.3720094,50.943904 20.3265797,53.9802478 C21.033238,54.2198575 21.7664917,54.4464181 22.5221493,54.6615073 C22.2768641,55.6410244 22.0635224,56.6008961 21.8844367,57.5371083 C20.1860864,66.4109764 21.5123896,73.4571587 25.73326,75.872325 C30.0930338,78.3665009 37.4099607,75.8027794 44.5347933,69.6242673 C45.0979231,69.135871 45.6630762,68.6179362 46.229241,68.0750509 C46.9630732,68.7760985 47.6957483,69.4395773 48.4245216,70.0619024 C55.3257503,75.9534854 62.1418445,78.3325168 66.3588122,75.9106112 C70.7142497,73.4092654 72.1297347,65.8399858 70.2920469,56.630722 C70.151698,55.9273798 69.9883675,55.2088381 69.8049457,54.4775346 C70.3187869,54.3268282 70.8232334,54.1712471 71.3151045,54.0095 C80.6242327,50.9496397 86.6810556,46.0030154 86.6810556,40.9438279 C86.6810556,36.0924169 81.0134797,31.4007454 72.2431987,28.405555 L72.2431987,28.405555 L72.2431987,28.405555 L72.2431987,28.405555 Z" id="Shape" fill="#53C1DE"></path>
                                <path d="M70.2241132,50.7428671 C69.7800849,50.8886973 69.3244933,51.0296528 68.8602294,51.1663062 C67.832547,47.938676 66.4455366,44.5065674 64.7481981,40.9606051 C66.3679185,37.4991009 67.7013039,34.1108708 68.700223,30.9041759 C69.5308971,31.1426382 70.3371438,31.3941494 71.114049,31.6595696 C78.6284178,34.2258719 83.2120849,38.0201906 83.2120849,40.9438279 C83.2120849,44.0580346 78.2618635,48.1007098 70.2241132,50.7428671 L70.2241132,50.7428671 L70.2241132,50.7428671 L70.2241132,50.7428671 Z M66.8889867,57.2990758 C67.7015929,61.3712903 67.8176588,65.0530457 67.2793901,67.9312276 C66.795758,70.5174616 65.8231451,72.2417608 64.6205686,72.9323409 C62.0614797,74.4018312 56.5888895,72.4916946 50.6868688,67.4531558 C50.010275,66.8755692 49.3287666,66.2588365 48.6450902,65.6061119 C50.9331658,63.1235512 53.2199404,60.2374831 55.4517896,57.0322218 C59.3773635,56.6866453 63.0861275,56.121677 66.4494391,55.3503669 C66.6150826,56.013272 66.7622247,56.6634154 66.8889867,57.2990758 L66.8889867,57.2990758 L66.8889867,57.2990758 L66.8889867,57.2990758 Z M33.1619167,72.6783922 C30.6616559,73.5543793 28.6703221,73.5794731 27.4665891,72.8909002 C24.9051877,71.4252818 23.8403582,65.7678593 25.2928452,58.1789348 C25.4592113,57.3098303 25.6572318,56.4170667 25.8854611,55.5045144 C29.2119151,56.2342406 32.8935051,56.7593451 36.8284744,57.0758134 C39.0753559,60.212246 41.4281854,63.0951595 43.799227,65.6194475 C43.2811941,66.1155868 42.7651844,66.5879232 42.2520659,67.0330145 C39.1015176,69.7650791 35.9443206,71.7034639 33.1619167,72.6783922 L33.1619167,72.6783922 L33.1619167,72.6783922 L33.1619167,72.6783922 Z M21.4485028,50.7237957 C17.4889615,49.3812082 14.2190228,47.6362604 11.9776339,45.7321466 C9.96360726,44.0210394 8.94676511,42.3222639 8.94676511,40.9438279 C8.94676511,38.0104401 13.3551045,34.2688897 20.7074438,31.7258171 C21.5995475,31.4172356 22.5334234,31.1264349 23.5025672,30.8532714 C24.5186865,34.1323797 25.8516386,37.5607599 27.4602294,41.0275695 C25.8308248,44.5458568 24.4789379,48.0288703 23.4528452,51.3464074 C22.7619419,51.1493856 22.092575,50.9420397 21.4485028,50.7237957 L21.4485028,50.7237957 L21.4485028,50.7237957 L21.4485028,50.7237957 Z M25.3749442,24.2090192 C23.8488861,16.4718264 24.8624038,10.6351628 27.4128201,9.17054797 C30.129458,7.61029008 36.1367037,9.83488712 42.4681541,15.412153 C42.8728672,15.7686277 43.2791704,16.141736 43.6866302,16.5277496 C41.3272963,19.0409965 38.9960033,21.902258 36.7690686,25.0201926 C32.9500204,25.3713618 29.2943032,25.9354694 25.9331595,26.690863 C25.7218413,25.8475695 25.5346614,25.0190455 25.3749442,24.2090192 L25.3749442,24.2090192 L25.3749442,24.2090192 L25.3749442,24.2090192 Z M60.4022999,32.7895054 C59.5988,31.412647 58.7739071,30.0683388 57.932971,28.7607392 C60.5238589,29.0856675 63.006196,29.5169932 65.3373449,30.0448224 C64.6374797,32.269993 63.7651784,34.5965425 62.7383628,36.9815961 C62.001785,35.5942701 61.2227117,34.1954726 60.4022999,32.7895054 L60.4022999,32.7895054 L60.4022999,32.7895054 L60.4022999,32.7895054 Z M46.118234,18.9872242 C47.7182969,20.706935 49.3206724,22.6269656 50.8967417,24.7101772 C49.308531,24.6357563 47.7006628,24.5970403 46.0794973,24.5970403 C44.4736528,24.5970403 42.8776372,24.634896 41.2992553,24.7080263 C42.8769145,22.6441727 44.4931658,20.7267232 46.118234,18.9872242 L46.118234,18.9872242 L46.118234,18.9872242 L46.118234,18.9872242 Z M31.742674,32.8133086 C30.9400408,34.1940386 30.1754218,35.5852364 29.4504069,36.9790152 C28.4402136,34.6022782 27.5760063,32.2651177 26.8700707,30.0084006 C29.1869097,29.4940504 31.6575397,29.0734791 34.2319497,28.7547167 C33.3791611,30.0743613 32.5474752,31.4285637 31.742674,32.8130218 L31.742674,32.8133086 L31.742674,32.8133086 L31.742674,32.8133086 Z M34.306099,53.378428 C31.6462655,53.0840423 29.1384886,52.6851237 26.8222278,52.184969 C27.5394375,49.8879586 28.4227243,47.5008976 29.4543095,45.0729692 C30.1812035,46.4657442 30.9488578,47.8575156 31.7564054,49.2412571 L31.7565499,49.2412571 C32.5791296,50.6509522 33.4313401,52.0318254 34.306099,53.378428 L34.306099,53.378428 L34.306099,53.378428 L34.306099,53.378428 Z M46.2142091,63.1430525 C44.5700612,61.3831917 42.9301052,59.4364903 41.3284524,57.3425241 C42.883274,57.4030358 44.468449,57.434009 46.0794973,57.434009 C47.7346302,57.434009 49.3708279,57.3970134 50.981298,57.3258905 C49.400025,59.4575693 47.8034314,61.4072819 46.2142091,63.1430525 L46.2142091,63.1430525 L46.2142091,63.1430525 L46.2142091,63.1430525 Z M62.7714627,44.9492213 C63.8568169,47.4033903 64.771758,49.7779763 65.4982184,52.0358406 C63.1437989,52.5686883 60.601766,52.9978635 57.9234314,53.3167694 C58.7663915,51.9915321 59.5985107,50.6241375 60.4161757,49.2175968 C61.2433812,47.7945663 62.0288139,46.3693846 62.7714627,44.9492213 L62.7714627,44.9492213 L62.7714627,44.9492213 L62.7714627,44.9492213 Z M57.4113242,47.4983164 C56.14197,49.6817596 54.8387933,51.7661183 53.5158146,53.7336124 C51.1061804,53.9045364 48.6167603,53.9925798 46.0794973,53.9925798 C43.5524967,53.9925798 41.0944414,53.9147173 38.7274471,53.7622907 C37.3511328,51.7689866 36.0196262,49.6784618 34.7583661,47.5171008 L34.7586552,47.5171008 C33.5007195,45.3616192 32.3429505,43.1879265 31.2938759,41.0264225 C32.3426614,38.8598995 33.4973951,36.6837692 34.7481037,34.5321591 L34.7478146,34.5325892 C36.0018475,32.3752434 37.3216465,30.2948996 38.685241,28.3140704 C41.100223,28.1329652 43.5766348,28.0384693 46.0793529,28.0384693 L46.0794973,28.0384693 C48.5934893,28.0384693 51.0730809,28.1336822 53.4873399,28.3163647 C54.8301208,30.2827112 56.1409584,32.3563155 57.3999058,34.5139482 C58.6731628,36.6958143 59.842784,38.8574616 60.900531,40.9775256 C59.8459641,43.1340108 58.6789444,45.3174544 57.4113242,47.4983164 L57.4113242,47.4983164 L57.4113242,47.4983164 L57.4113242,47.4983164 Z M64.5673778,9.06816545 C67.2866175,10.6238348 68.3440752,16.8978466 66.6356072,25.1250128 C66.5266235,25.6499742 66.4039091,26.1846862 66.2706425,26.7265679 C62.9016934,25.955401 59.2433745,25.3815427 55.4131974,25.025068 C53.1819261,21.8728624 50.8697124,19.0071558 48.5488262,16.5261723 C49.1728076,15.9306617 49.7959214,15.3628259 50.4164334,14.8269667 C56.4113935,9.65120088 62.0145043,7.60770901 64.5673778,9.06816545 L64.5673778,9.06816545 L64.5673778,9.06816545 L64.5673778,9.06816545 Z" id="Shape" fill="#FFFFFF"></path>
                                <path d="M46.0794973,33.7502377 C50.0841352,33.7502377 53.3306581,36.9708416 53.3306581,40.9438279 C53.3306581,44.9166708 50.0841352,48.1374187 46.0794973,48.1374187 C42.0748595,48.1374187 38.8283362,44.9166708 38.8283362,40.9438279 C38.8283362,36.9708416 42.0748595,33.7502377 46.0794973,33.7502377" id="Shape" fill="#53C1DE"></path>
                            </g>
                        </g>
                        <g id="redux" transform="translate(105.000000, 0.000000)" fill="#764ABC">
                            <path d="M52.3520174,50.0850744 C55.1402984,49.7966769 57.2555461,47.3933623 57.1593984,44.5093849 C57.0632507,41.6254075 54.6595602,39.3182253 51.7751315,39.3182253 L51.5828364,39.3182253 C48.6022601,39.414358 46.2947173,41.9138053 46.390865,44.8939151 C46.4870127,46.3359039 47.0638982,47.5856274 47.9292268,48.4508207 C44.6602077,54.8917035 39.6605316,59.6021999 32.161017,63.5436357 C27.0651932,66.235348 21.7770741,67.1966737 16.488955,66.5237458 C12.1623121,65.9469503 8.79714536,64.0242986 6.68189772,60.8519237 C3.60517386,56.141427 3.31673099,51.0464004 5.91271676,45.9513735 C7.73952153,42.2983354 10.6239501,39.6066231 12.4507549,38.260767 C12.0661645,37.0110435 11.4892787,34.8961267 11.2008359,33.3580054 C-2.74056908,43.4519265 -1.29835477,57.102753 2.93214052,63.5436357 C6.10501199,68.3502648 12.5469026,71.3303749 19.6618264,71.3303749 C21.5847789,71.3303749 23.5077313,71.1381095 25.4306837,70.6574467 C37.737579,68.2541321 47.0638982,60.9480561 52.3520174,50.0850744 L52.3520174,50.0850744 Z M69.2739986,38.1646346 C61.9667794,29.6088347 51.198246,24.8983384 38.8913504,24.8983384 L37.3529885,24.8983384 C36.4876599,23.1679519 34.6608552,22.014361 32.6417552,22.014361 L32.4494601,22.014361 C29.4688837,22.1104935 27.1613408,24.6099406 27.2574885,27.5900506 C27.3536361,30.474028 29.7573265,32.7812099 32.6417552,32.7812099 L32.8340506,32.7812099 C34.949298,32.6850775 36.776103,31.3392213 37.5452839,29.5127023 L39.2759411,29.5127023 C46.5831601,29.5127023 53.5057888,31.6276191 59.7553843,35.76132 C64.5627653,38.9336952 68.0240795,43.0673961 69.9470318,48.0662903 C71.5815414,52.1038588 71.4853937,56.0452946 69.7547368,59.4099348 C67.0626032,64.5049617 62.5436652,67.2928064 56.5825125,67.2928064 C52.7366078,67.2928064 49.0829982,66.1392153 47.1600459,65.2740223 C46.1024222,66.235348 44.1794695,67.7734693 42.8334031,68.7347953 C46.9677505,70.6574467 51.198246,71.7149051 55.236446,71.7149051 C64.4666176,71.7149051 71.2930986,66.6198785 73.8890842,61.5248516 C76.6773652,55.9491619 76.4850701,46.3359039 69.2739986,38.1646346 L69.2739986,38.1646346 Z M20.4310074,51.7193283 C20.527155,54.6033057 22.9308455,56.9104879 25.8152741,56.9104879 L26.0075694,56.9104879 C28.9881456,56.8143552 31.2956884,54.3149079 31.199541,51.3347981 C31.1033933,48.4508207 28.6997028,46.1436386 25.8152741,46.1436386 L25.6229789,46.1436386 C25.4306837,46.1436386 25.1422408,46.1436386 24.9499456,46.2397712 C21.0078931,39.7027558 19.3733836,32.5889448 19.9502693,24.8983384 C20.3348598,19.1303835 22.2578122,14.1314893 25.6229789,9.99778839 C28.4112599,6.4408829 33.7955266,4.71049646 37.4491362,4.61436386 C47.6407841,4.42209871 51.9674269,17.1115993 52.2558697,22.2066261 C53.5057888,22.4950239 55.6210365,23.1679519 57.0632507,23.6486148 C55.9094793,8.07513678 46.2947173,0 37.0645457,0 C28.4112599,0 20.4310074,6.24861773 17.2581359,15.4773455 C12.8353454,27.7823158 15.719774,39.6066231 21.1040408,48.9314836 C20.6233027,49.6044115 20.3348598,50.6618699 20.4310074,51.7193283 L20.4310074,51.7193283 Z" id="Shape"></path>
                        </g>
                    </g>
                </g>
            </g>
        </g>
    </g>
</svg>