<?xml version="1.0" encoding="UTF-8" standalone="no"?>
<svg width="97px" height="82px" viewBox="0 0 97 82" version="1.1" xmlns="http://www.w3.org/2000/svg" xmlns:xlink="http://www.w3.org/1999/xlink" xmlns:sketch="http://www.bohemiancoding.com/sketch/ns">
    <!-- Generator: Sketch 3.5.2 (25235) - http://www.bohemiancoding.com/sketch -->
    <title>terminal</title>
    <desc>Created with Sketch.</desc>
    <defs></defs>
    <g id="Page-1" stroke="none" stroke-width="1" fill="none" fill-rule="evenodd" sketch:type="MSPage">
        <g id="cu7io.us" sketch:type="MSArtboardGroup" transform="translate(-487.000000, -2309.000000)">
            <g id="About-Me" sketch:type="MSLayerGroup" transform="translate(424.000000, 1460.000000)">
                <g id="CLI" transform="translate(11.000000, 850.000000)" sketch:type="MSShapeGroup">
                    <g id="terminal" transform="translate(53.000000, 0.000000)">
                        <g id="Group">
                            <rect id="Rectangle-path" fill="#D4D4D4" x="0" y="0" width="95" height="79.9065421" rx="5"></rect>
                            <rect id="Rectangle-path" fill="#000000" x="1.42857143" y="1.42690254" width="92.1428571" height="77.052737" rx="5"></rect>
                            <rect id="Rectangle-path" fill="#414141" x="5" y="4.99415888" width="85" height="69.6992584" rx="5"></rect>
                            <path d="M14.3770492,12.2435393 C14.0928962,11.9586052 13.75,11.8161382 13.3483607,11.8161382 C12.9467213,11.8161382 12.602459,11.9599751 12.3155738,12.2476489 C12.0327869,12.5312131 11.8893443,12.8764217 11.8893443,13.279165 C11.8893443,13.6819084 12.0327869,14.027117 12.3155738,14.3106812 L16.7786885,18.786064 L12.3196721,23.2573372 C12.0327869,23.545011 11.8893443,23.8902196 11.8852459,24.2929629 C11.8893443,24.6957063 12.0327869,25.0409149 12.3155738,25.3244791 C12.602459,25.6080433 12.9467213,25.7518802 13.3442623,25.7559898 C13.75,25.7559898 14.0942623,25.6121529 14.3811476,25.3244791 L19.3401639,20.3477219 C20.3811475,19.3079865 20.3811475,18.2641415 19.3401639,17.2202965 L14.3770492,12.2435393 L14.3770492,12.2435393 L14.3770492,12.2435393 Z M33.8155738,23.2655564 C33.5286885,22.9778826 33.1803279,22.8340457 32.7745902,22.8340457 L32.7745902,22.8319909 L23.2008197,22.8319909 L23.2008197,22.8340457 C22.795082,22.8340457 22.4508197,22.9778826 22.1639344,23.2655564 C21.8770492,23.5532303 21.7336065,23.8984388 21.7336065,24.3052918 C21.7336065,24.7121448 21.8770492,25.061463 22.1639344,25.3491369 C22.4508197,25.6368107 22.795082,25.7806476 23.2008197,25.7806476 L23.2008197,25.7785928 L32.7745902,25.7785928 L32.7745902,25.7806476 C33.1803279,25.7806476 33.5286885,25.6368107 33.8155738,25.3491369 C34.102459,25.061463 34.2459016,24.7121448 34.2459016,24.3052918 C34.2459016,23.8984388 34.102459,23.5532303 33.8155738,23.2655564 L33.8155738,23.2655564 L33.8155738,23.2655564 L33.8155738,23.2655564 Z" id="Shape" fill="#FFFFFF"></path>
                        </g>
                    </g>
                </g>
            </g>
        </g>
    </g>
</svg>