<?xml version="1.0" encoding="UTF-8" standalone="no"?>
<svg width="90px" height="90px" viewBox="0 0 90 90" version="1.1" xmlns="http://www.w3.org/2000/svg" xmlns:xlink="http://www.w3.org/1999/xlink" xmlns:sketch="http://www.bohemiancoding.com/sketch/ns">
    <!-- Generator: Sketch 3.5.2 (25235) - http://www.bohemiancoding.com/sketch -->
    <title>Vim Logo</title>
    <desc>Created with Sketch.</desc>
    <defs></defs>
    <g id="Page-1" stroke="none" stroke-width="1" fill="none" fill-rule="evenodd" sketch:type="MSPage">
        <g id="cu7io.us" sketch:type="MSArtboardGroup" transform="translate(-485.000000, -2593.000000)">
            <g id="About-Me" sketch:type="MSLayerGroup" transform="translate(424.000000, 1460.000000)">
                <g id="VIM" transform="translate(12.000000, 1133.000000)" sketch:type="MSShapeGroup">
                    <g id="Vim-Logo" transform="translate(49.000000, 0.000000)">
                        <path d="M45.1005469,0.683579767 L0.683789062,44.7846304 L45.1005469,89.0894942 L89.3133984,44.7846304 L45.1005469,0.683579767" id="Shape" fill="#019833"></path>
                        <path d="M45.0928125,4.73322957 L45.0928125,1.01031128 L0.975234375,44.7926848 L4.75558594,44.7926848 L45.0928125,4.73322957" id="Shape" fill="#66FE98"></path>
                        <path d="M45.0928125,4.73322957 L45.0928125,1.01031128 L89.3475,44.7926848 L85.2567188,44.7926848 L45.0928125,4.73322957" id="Shape" fill="#45FE02"></path>
                        <path d="M45.0928125,85.0398444 L45.0928125,89.161284 L0.975234375,44.7926848 L4.75558594,44.7926848 L45.0928125,85.0398444" id="Shape" fill="#017D17"></path>
                        <path d="M45.0928125,85.0398444 L45.0928125,89.161284 L89.3475,44.7926848 L85.2567188,44.7926848 L45.0928125,85.0398444" id="Shape" fill="#005D04"></path>
                        <path d="M22.9310156,80.7517121 L14.3789062,80.7517121 L11.0390625,77.5096109 L11.0390625,15.6011673 L8.38828125,15.6011673 L6.11894531,13.3375097 L6.11894531,6.41731518 L8.46984375,3.87735409 L38.3790234,3.87735409 L41.068125,6.55914397 L41.068125,13.127393 L38.8335937,15.8403502 L36.57375,15.8403502 L36.57375,36.7672763 L57.8387109,15.8403502 L56.6514844,15.8403502 L54.1782422,13.1834241 L54.1782422,6.21875486 L56.6082422,3.99677043 L86.7976172,3.99677043 L89.1868359,6.37984436 L89.1868359,12.9670039 L22.9310156,80.7517121" id="Shape" fill="#000000"></path>
                        <path d="M45.0928125,89.769572 L0,44.7926848 L45.0928125,0 L90,44.7926848 L45.0928125,89.769572 L45.0928125,89.769572 L45.0928125,89.769572 Z M1.38128906,44.7926848 L45.0928125,88.392607 L88.6180078,44.7926848 L45.0928125,1.37801556 L1.38128906,44.7926848 L1.38128906,44.7926848 L1.38128906,44.7926848 Z" id="Shape" fill="#000000"></path>
                        <path d="M37.9951172,7.96412451 L39.3236719,7.10929961 L37.9662891,5.70571984 L9.19546875,5.70571984 L7.73367188,7.16392996 L7.73367188,12.6794942 L9.354375,14.2959922 L10.1274609,12.6794942 L9.11074219,11.6649805 L9.11074219,7.77677043 L9.87328125,7.10054475 L37.0364063,7.13381323 L37.9951172,7.96412451" id="Shape" fill="#FEFEFE"></path>
                        <path d="M14.5750781,12.5485214 L14.5750781,77.101284 L15.4863281,77.9655642 L14.7561328,79.3400778 L12.8397656,77.4598833 L12.8397656,14.2221012 L14.5750781,12.5485214" id="Shape" fill="#FEFEFE"></path>
                        <path d="M9.92671875,12.5485214 L9.354375,14.2959922 L12.8299219,14.2959922 L14.8405078,12.5485214 L9.92671875,12.5485214" id="Shape" fill="#808080"></path>
                        <path d="M58.5460547,12.5709339 L57.3307031,11.7157588 L57.3307031,8.25023346 L58.6019531,6.98217899 L85.1269922,6.98217899 L86.1440625,8.33463035 L87.5914453,7.19684825 L86.1015234,5.84089494 L57.5848828,5.84089494 L56.1652734,7.25673152 L56.1652734,12.8146693 L57.6601172,14.1622179 M34.5923437,40.8855642 L31.8223828,47.5896887 L63.0931641,16.3141634 L62.9402344,12.5306615 L34.5923437,40.8855642" id="Shape" fill="#FEFEFE"></path>
                        <path d="M37.9325391,7.9392607 L39.3236719,7.10929961 L39.3236719,12.5485214 L37.7356641,14.1324514 L34.6496484,14.1324514 L34.5923437,40.8855642 L31.8329297,47.5742802 L31.8329297,12.5485214 L36.9864844,12.5485214 L37.9451953,11.7714397 L37.9325391,7.9392607" id="Shape" fill="#808080"></path>
                        <path d="M86.0498437,7.95712062 L87.5914453,7.19684825 L87.5914453,12.1636576 L21.9403125,79.3400778 L14.7561328,79.3400778 L15.4571484,78.0198444 L20.9749219,78.0201946 L86.0593359,10.9887549 L86.0498437,7.95712062" id="Shape" fill="#808080"></path>
                        <path d="M62.9402344,12.5306615 L61.3413281,14.1307004 L57.6601172,14.1622179 L58.5590625,12.5548249 C58.5889453,12.5548249 62.9402344,12.5306615 62.9402344,12.5306615" id="Shape" fill="#808080"></path>
                        <path d="M58.3498828,6.93035019 L57.3338672,7.94346304 L57.3338672,11.66393 L58.2236719,12.551323 L62.9247656,12.551323 L62.9247656,16.14607 L31.8255469,47.5875875 L31.8255469,12.5957977 L36.9938672,12.5957977 L38.0541797,11.5382101 L38.0541797,7.77326848 L37.0754297,7.01894942 L9.87644531,7.01894942 L8.98664062,7.90669261 L8.98664062,11.7525292 L9.89121094,12.6549805 L14.6221875,12.6549805 L14.6221875,77.0914786 L15.5119922,77.9788716 L20.8880859,77.9788716 L86.0603906,10.9019066 L86.0603906,7.94346304 L85.044375,6.93035019 L58.3498828,6.93035019" id="Shape" fill="#CCCCCC"></path>
                        <path d="M20.9246484,78.0646693 L15.4764844,78.0646693 L14.5364062,77.1268482 L14.5364062,12.740428 L9.85570312,12.740428 L8.90085937,11.7878988 L8.90085937,7.87097276 L9.8409375,6.93350195 L37.1049609,6.93350195 L38.1403125,7.73124514 L38.1403125,11.5735798 L37.0297266,12.6812451 L31.9113281,12.6812451 L31.9113281,47.3788716 L62.8389844,16.1107004 L62.8389844,12.6371206 L58.1881641,12.6371206 L57.2480859,11.6992996 L57.2480859,7.90809339 L58.3140234,6.84455253 L85.0798828,6.84455253 L86.1461719,7.90809339 L86.1461719,10.9365759 L86.1222656,10.9614397 L20.9246484,78.0646693 L20.9246484,78.0646693 L20.9246484,78.0646693 Z M15.5478516,77.8934241 L20.851875,77.8934241 L85.9746094,10.8675875 L85.9746094,7.97883268 L85.0088672,7.01579767 L58.3853906,7.01579767 L57.4196484,7.97883268 L57.4196484,11.6285603 L58.2591797,12.4658755 L63.0108984,12.4658755 L63.0108984,16.1810895 L62.9862891,16.2059533 L31.7397656,47.7963035 L31.7397656,12.5103502 L36.9583594,12.5103502 L37.9683984,11.5024903 L37.9683984,7.81529183 L37.04625,7.10439689 L9.91195312,7.10439689 L9.07242187,7.94206226 L9.07242187,11.7171595 L9.92707031,12.5695331 L14.7079687,12.5695331 L14.7079687,77.0557588 L15.5478516,77.8934241 L15.5478516,77.8934241 L15.5478516,77.8934241 Z" id="Shape" fill="#808080"></path>
                        <path d="M47.3083594,50.3646304 C47.2587891,50.374786 47.2130859,50.3978988 47.1747656,50.4311673 L45.9144141,51.5108171 C45.8767969,51.5451362 45.8486719,51.5882101 45.8328516,51.636537 L44.5721484,55.157393 C44.5341797,55.2628016 44.5601953,55.3804669 44.6389453,55.4606615 L45.6029297,56.4219455 C45.6588281,56.4755253 45.7333594,56.5045914 45.8107031,56.5035409 L49.7035547,56.5035409 C49.7808984,56.5045914 49.8554297,56.4755253 49.9109766,56.4219455 L50.9269922,55.4014786 C50.9621484,55.3664591 50.9874609,55.323035 51.0011719,55.2757588 L52.0839844,51.57 C52.1138672,51.4677432 52.0853906,51.3570817 52.0098047,51.2817899 L51.1716797,50.4458755 C51.1161328,50.3922957 51.04125,50.3632296 50.9642578,50.3646304 L47.3677734,50.3646304 C47.3480859,50.3625292 47.3280469,50.3625292 47.3083594,50.3646304 L47.3083594,50.3646304 L47.3083594,50.3646304 Z M40.1751562,60.2901946 C40.0658203,60.3136576 39.9796875,60.3970039 39.9526172,60.5048638 L39.470625,62.4130739 C39.4316016,62.5692607 39.526875,62.7278988 39.6836719,62.7667704 C39.7061719,62.7723735 39.7290234,62.7751751 39.7522266,62.7755253 L42.0437109,62.7755253 L36.3635156,78.9510117 C36.3121875,79.1040467 36.3948047,79.2693385 36.5480859,79.3204669 C36.5769141,79.3302724 36.6071484,79.3355253 36.6380859,79.3358755 L44.9057812,79.3358755 C45.0333984,79.3376265 45.1473047,79.2567315 45.1877344,79.1359144 L45.7291406,77.3978988 C45.77625,77.2438132 45.6894141,77.0806226 45.5347266,77.0333463 C45.5066016,77.0249416 45.4770703,77.0203891 45.4471875,77.0207393 L43.5786328,77.0207393 L49.1994141,60.6750584 C49.2507422,60.5220233 49.168125,60.3567315 49.0148437,60.3056031 C48.9860156,60.2957977 48.9554297,60.2905447 48.9248437,60.2901946 L40.2342187,60.2901946 C40.2145312,60.2884436 40.1948437,60.2884436 40.1751562,60.2901946 L40.1751562,60.2901946 L40.1751562,60.2901946 Z M66.4843359,60.3493774 C66.4207031,60.3626848 66.3630469,60.3963035 66.3208594,60.4456809 L64.6006641,62.3833074 L61.8644531,62.3833074 L60.0401953,60.4975097 C59.9857031,60.4411284 59.9111719,60.4092607 59.8327734,60.4085603 L53.3000391,60.4085603 C53.1769922,60.4089105 53.0673047,60.4856031 53.0254687,60.6008171 L52.425,62.3910117 C52.3736719,62.5436965 52.4559375,62.7089883 52.6092187,62.7604669 C52.6383984,62.7699222 52.6686328,62.7751751 52.6992187,62.7755253 L54.4492969,62.7755253 L49.0064062,78.773463 C48.9550781,78.9264981 49.0376953,79.0917899 49.1909766,79.1432685 C49.2198047,79.1527237 49.2503906,79.1579767 49.2809766,79.1583268 L56.2362891,79.1583268 C56.3593359,79.1579767 56.4686719,79.081284 56.5108594,78.96607 L57.0445312,77.4052529 C57.0958594,77.2525681 57.0135937,77.0869261 56.8603125,77.0357977 C56.8311328,77.0259922 56.8008984,77.0210895 56.7703125,77.0207393 L55.5542578,77.0207393 L59.0245312,66.1258366 L65.3051953,66.1258366 L61.3455469,78.7811673 C61.2980859,78.9352529 61.3849219,79.0984436 61.5396094,79.1453696 C61.5680859,79.1541245 61.5976172,79.1583268 61.6271484,79.1583268 L68.3377734,79.1583268 C68.4544922,79.1572763 68.5592578,79.0875875 68.6049609,78.9807782 L69.2054297,77.5456809 C69.2651953,77.3961479 69.1917187,77.2263035 69.0416016,77.1671206 C69.0085547,77.1541634 68.97375,77.1471595 68.9385937,77.1464591 L67.7225391,77.1464591 L71.2522266,66.0666537 L77.2287891,66.0666537 L73.2097266,78.7811673 C73.1626172,78.9352529 73.2494531,79.0984436 73.4037891,79.1453696 C73.4322656,79.1541245 73.4617969,79.1583268 73.4916797,79.1583268 L80.8621875,79.1583268 C80.983125,79.1590272 81.0924609,79.0854864 81.1367578,78.9734241 L81.7372266,77.412607 C81.7927734,77.261323 81.7147266,77.09393 81.5628516,77.0385992 C81.5308594,77.0266926 81.4971094,77.0207393 81.4630078,77.0207393 L80.0019141,77.0207393 L84.4439062,62.6350973 C84.4734375,62.5440467 84.4569141,62.4449416 84.3992578,62.3685992 L83.0200781,60.519572 C82.963125,60.4474319 82.8748828,60.4061089 82.7827734,60.4085603 L77.5107422,60.4085603 C77.4295312,60.4071595 77.3518359,60.4393774 77.2955859,60.4975097 L75.6344531,62.3167704 L72.7277344,62.3167704 L71.0075391,60.4383268 C70.9512891,60.3801946 70.8732422,60.3479767 70.7923828,60.3493774 L66.5433984,60.3493774 C66.5237109,60.3476265 66.5040234,60.3476265 66.4843359,60.3493774 L66.4843359,60.3493774 L66.4843359,60.3493774 Z" id="Shape" fill="#CCCCCC"></path>
                        <path d="M45.1262109,56.9150195 C45.3100781,57.0915175 45.5505469,57.1881712 45.7945312,57.1881712 C45.7998047,57.1881712 45.8050781,57.1881712 45.8107031,57.187821 L49.6916016,57.187821 C49.9524609,57.1958755 50.1992578,57.0957198 50.3992969,56.9041634 L51.4128516,55.8854475 C51.5302734,55.7684825 51.6164062,55.6224514 51.6610547,55.466965 L52.7435156,51.7619066 C52.8437109,51.4190661 52.7487891,51.0492607 52.4956641,50.7981712 L51.64875,49.9531518 C51.4606641,49.7724514 51.2135156,49.6729961 50.9642578,49.68 L47.3923828,49.68 C47.3410547,49.6771984 47.2897266,49.678249 47.2391016,49.6835019 L47.1670312,49.6947082 C47.0017969,49.7293774 46.8474609,49.80607 46.726875,49.9118288 L45.4661719,50.9918288 L45.4517578,51.004786 C45.3290625,51.1161479 45.2366016,51.2569261 45.1831641,51.413463 L43.9252734,54.9262646 C43.7990625,55.2768093 43.8869531,55.6746304 44.1527344,55.9442802 L45.1262109,56.9150195 L45.1262109,56.9150195 L45.1262109,56.9150195 Z M50.8053516,51.0489105 L51.3590625,51.6011673 L50.3690625,54.9896498 L49.5442969,55.8189105 L45.9696094,55.8192607 L45.3026953,55.1538911 L46.4477344,51.9566148 L47.5073437,51.0489105 L50.8053516,51.0489105 L50.8053516,51.0489105 L50.8053516,51.0489105 Z" id="Shape" fill="#000000"></path>
                        <path d="M84.9508594,61.9602724 L83.5716797,60.1112451 L83.559375,60.0954864 C83.3716406,59.8580545 83.08125,59.720428 82.7771484,59.7242802 L77.5219922,59.7242802 C77.2488281,59.7179767 76.9897266,59.8279377 76.8016406,60.0212451 L75.3307031,61.6324903 L73.0311328,61.6324903 L71.5151953,59.9771206 L71.5011328,59.9620623 C71.3133984,59.7687549 71.0535938,59.6654475 70.7923828,59.6650973 L66.5680078,59.6650973 C66.5170313,59.6622957 66.4653516,59.6633463 66.4147266,59.6685992 L66.3437109,59.6794553 C66.1324219,59.7232296 65.9387109,59.8377432 65.8061719,59.992179 L64.2909375,61.6990272 L62.1566016,61.6990272 L60.5341406,60.0215953 C60.3530859,59.8349416 60.0992578,59.7263813 59.8327734,59.7242802 L53.2979297,59.7242802 C52.8883594,59.7253307 52.5195703,59.9837743 52.3796484,60.3675875 L51.7735547,62.1728405 C51.6016406,62.6830739 51.8783203,63.2377821 52.3908984,63.4093774 C52.4879297,63.4415953 52.5891797,63.4587549 52.6992188,63.4598054 L53.4909375,63.4598054 L48.3546094,78.5566926 C48.18375,79.0662257 48.4604297,79.6205837 48.9723047,79.792179 C49.0696875,79.8243969 49.1709375,79.8415564 49.2809766,79.842607 L56.2383984,79.842607 C56.6483203,79.8415564 57.0174609,79.5827626 57.16125,79.1866926 L57.6963281,77.6227237 C57.8675391,77.1128405 57.5908594,76.5584825 57.0786328,76.3868872 C56.98125,76.3543191 56.88,76.3371595 56.7703125,76.3361089 L56.4929297,76.3361089 L59.5272656,66.8104669 L64.3710938,66.8104669 L60.688125,78.580856 C60.5302734,79.095642 60.8220703,79.6422957 61.3374609,79.7995331 C61.4327344,79.8285992 61.5346875,79.8405058 61.6271484,79.842607 L68.34375,79.842607 C68.7339844,79.8394553 69.0848438,79.6062257 69.2391797,79.2441245 L69.8445703,77.797821 C70.0432031,77.297393 69.7967578,76.7290272 69.2968359,76.5315175 C69.1853906,76.4870428 69.0683203,76.46393 68.9385938,76.4618288 L68.6615625,76.4618288 L71.7549609,66.751284 L76.291875,66.751284 L72.5523047,78.5815564 C72.3951563,79.0959922 72.6869531,79.6426459 73.2019922,79.7995331 C73.2951563,79.828249 73.3921875,79.842607 73.4864063,79.842607 L73.4916797,79.842607 L80.8576172,79.842607 C81.2647266,79.8401556 81.6289453,79.5967704 81.7783594,79.2182101 L82.3826953,77.6475875 C82.5679688,77.1422568 82.3064063,76.5805447 81.7991016,76.395642 C81.6925781,76.3567704 81.5804297,76.3368093 81.4630078,76.3361089 L80.9321484,76.3361089 L85.0971094,62.8473152 C85.19625,62.5447471 85.1407031,62.2117121 84.9508594,61.9602724 L84.9508594,61.9602724 L84.9508594,61.9602724 Z M79.0716797,77.7050195 L80.8889063,77.7050195 L80.5928906,78.4736965 L74.0271094,78.4736965 L78.1657031,65.3823735 L70.7491406,65.3823735 L66.7835156,77.8310895 L68.3416406,77.8310895 L68.0726953,78.4736965 L62.1611719,78.4736965 L66.2389453,65.4415564 L58.5214453,65.4415564 L54.6152344,77.7050195 L56.21625,77.7050195 L55.9532813,78.4736965 L49.8339844,78.4736965 L55.4076563,62.0908949 L53.2501172,62.0908949 L53.5848047,61.0931907 L59.6622656,61.0931907 L61.5723047,63.0679377 L64.9103906,63.0679377 L66.7156641,61.0340078 L70.6229297,61.0336576 L72.4243359,63.0014008 L75.9385547,63.0014008 L77.6805469,61.0931907 L82.591875,61.0931907 L83.7295313,62.6186381 L79.0716797,77.7050195 L79.0716797,77.7050195 L79.0716797,77.7050195 Z" id="Shape" fill="#000000"></path>
                        <path d="M45.736875,76.3791829 C45.6419531,76.3501167 45.5470313,76.3385603 45.4471875,76.3361089 L44.5401563,76.3361089 L49.8508594,60.8928794 C50.0227734,60.3822957 49.7457422,59.8279377 49.2331641,59.6563424 C49.1364844,59.6241245 49.0352344,59.606965 48.9248438,59.6059144 L40.2588281,59.6059144 C40.2075,59.6031128 40.1561719,59.6041634 40.1051953,59.6094163 L40.0303125,59.621323 C39.6625781,59.7001167 39.3771094,59.9750195 39.2860547,60.337821 L38.8037109,62.2477821 C38.6732813,62.769572 38.9932031,63.3001167 39.5187891,63.4314397 C39.5933203,63.4496498 39.6703125,63.4594553 39.7522266,63.4598054 L41.0751563,63.4598054 L35.7120703,78.7335409 C35.5401563,79.2441245 35.8175391,79.7984825 36.3294141,79.9697276 C36.4267969,80.0019455 36.5280469,80.0191051 36.6380859,80.0201556 L44.8959375,80.0201556 L44.9103516,80.0201556 C45.3336328,80.0201556 45.7059375,79.7529572 45.8441016,79.338677 L46.3862109,77.5978599 C46.5440625,77.0834241 46.2522656,76.5364202 45.736875,76.3791829 L45.736875,76.3791829 L45.736875,76.3791829 Z M37.1967188,78.6512451 L43.0119141,62.0908949 L40.2605859,62.0908949 L40.5425391,60.9748249 L48.3697266,60.9748249 L42.6167578,77.7050195 L44.9138672,77.7050195 L44.6192578,78.6512451 L37.1967188,78.6512451 L37.1967188,78.6512451 L37.1967188,78.6512451 Z" id="Shape" fill="#000000"></path>
                    </g>
                </g>
            </g>
        </g>
    </g>
</svg>