<?xml version="1.0" encoding="UTF-8" standalone="no"?>
<svg width="95px" height="95px" viewBox="0 0 95 95" version="1.1" xmlns="http://www.w3.org/2000/svg" xmlns:xlink="http://www.w3.org/1999/xlink" xmlns:sketch="http://www.bohemiancoding.com/sketch/ns">
    <!-- Generator: Sketch 3.5.2 (25235) - http://www.bohemiancoding.com/sketch -->
    <title>WP</title>
    <desc>Created with Sketch.</desc>
    <defs></defs>
    <g id="Page-1" stroke="none" stroke-width="1" fill="none" fill-rule="evenodd" sketch:type="MSPage">
        <g id="cu7io.us" sketch:type="MSArtboardGroup" transform="translate(-686.000000, -2965.000000)" fill="#1E8CBE">
            <g id="About-Me" sketch:type="MSLayerGroup" transform="translate(424.000000, 1460.000000)">
                <g id="wordpress" transform="translate(211.000000, 1505.000000)" sketch:type="MSShapeGroup">
                    <g id="WP" transform="translate(51.000000, 0.000000)">
                        <path d="M6.72569106,47.3146342 C6.72569106,63.3812194 16.0627236,77.2658943 29.6021545,83.8456099 L10.2399187,30.7954471 C7.98772357,35.8435772 6.72569106,41.4300407 6.72569106,47.3146342 L6.72569106,47.3146342 L6.72569106,47.3146342 Z M74.7178863,45.2663414 C74.7178863,40.2498779 72.9159757,36.775813 71.3704878,34.0717886 C69.312927,30.728252 67.3843494,27.8967886 67.3843494,24.553252 C67.3843494,20.8219919 70.2142684,17.3486992 74.2004065,17.3486992 C74.3803658,17.3486992 74.551057,17.3710976 74.7263821,17.3811382 C67.5048373,10.7651219 57.8835772,6.72569106 47.3161787,6.72569106 C33.1356911,6.72569106 20.6597967,14.0013008 13.4019512,25.0213008 C14.3542683,25.0498781 15.251748,25.0699594 16.0140651,25.0699594 C20.2597154,25.0699594 26.8317073,24.5547967 26.8317073,24.5547967 C29.0197967,24.425813 29.2777642,27.6395935 27.0919919,27.8983333 C27.0919919,27.8983333 24.8930894,28.1570732 22.4462602,28.2852846 L37.2276422,72.2517479 L46.1105285,45.6108129 L39.7864635,28.2837398 C37.6006909,28.1555284 35.53,27.8967886 35.53,27.8967886 C33.3426829,27.7685772 33.5991057,24.4242683 35.7864228,24.553252 C35.7864228,24.553252 42.4897156,25.0684146 46.4781707,25.0684146 C50.7230487,25.0684146 57.2958129,24.553252 57.2958129,24.553252 C59.4854471,24.4242683 59.7426422,27.6380488 57.5560977,27.8967886 C57.5560977,27.8967886 55.3525608,28.1555284 52.9103658,28.2837398 L67.5789837,71.9173171 L71.6276829,58.387927 C73.3824798,52.7736586 74.7178863,48.7411787 74.7178863,45.2663414 L74.7178863,45.2663414 L74.7178863,45.2663414 Z M48.0282928,50.8651627 L35.8497561,86.2538213 C39.4860163,87.3227643 43.3315855,87.9074392 47.3161787,87.9074392 C52.043008,87.9074392 56.5759757,87.0902844 60.7953658,85.6065855 C60.6864635,85.4328049 60.5876015,85.2482114 60.5065042,85.0473985 L48.0282928,50.8651627 L48.0282928,50.8651627 L48.0282928,50.8651627 Z M82.9326829,27.8404065 C83.1072357,29.1333333 83.2060977,30.5212602 83.2060977,32.0142276 C83.2060977,36.1332114 82.4368293,40.7634958 80.1197563,46.5530894 L67.7210977,82.4005285 C79.7884145,75.3635772 87.9051221,62.2898779 87.9051221,47.3154065 C87.9058943,40.2583741 86.1032114,33.6222764 82.9326829,27.8404065 L82.9326829,27.8404065 L82.9326829,27.8404065 Z M47.3161787,0 C21.2267073,0 0,21.2251626 0,47.3146342 C0,73.4071951 21.2267073,94.6315855 47.3161787,94.6315855 C73.4048779,94.6315855 94.6346749,73.4071951 94.6346749,47.3146342 C94.6339023,21.2251626 73.4048779,0 47.3161787,0 L47.3161787,0 L47.3161787,0 Z M47.3161787,92.4628049 C22.4230894,92.4628049 2.16955284,72.2092684 2.16955284,47.3146342 C2.16955284,22.4215447 22.4223171,2.16955284 47.3161787,2.16955284 C72.2084958,2.16955284 92.4604878,22.4215447 92.4604878,47.3146342 C92.4604878,72.2092684 72.2084958,92.4628049 47.3161787,92.4628049 L47.3161787,92.4628049 L47.3161787,92.4628049 Z" id="Shape"></path>
                    </g>
                </g>
            </g>
        </g>
    </g>
</svg>